<?xml version="1.0" encoding="utf-8" standalone="no"?>
<!DOCTYPE svg PUBLIC "-//W3C//DTD SVG 1.1//EN"
  "http://www.w3.org/Graphics/SVG/1.1/DTD/svg11.dtd">
<svg xmlns:xlink="http://www.w3.org/1999/xlink" width="864pt" height="432pt" viewBox="0 0 864 432" xmlns="http://www.w3.org/2000/svg" version="1.1">
 <metadata>
  <rdf:RDF xmlns:dc="http://purl.org/dc/elements/1.1/" xmlns:cc="http://creativecommons.org/ns#" xmlns:rdf="http://www.w3.org/1999/02/22-rdf-syntax-ns#">
   <cc:Work>
    <dc:type rdf:resource="http://purl.org/dc/dcmitype/StillImage"/>
    <dc:date>2024-04-12T08:21:41.378511</dc:date>
    <dc:format>image/svg+xml</dc:format>
    <dc:creator>
     <cc:Agent>
      <dc:title>Matplotlib v3.8.0, https://matplotlib.org/</dc:title>
     </cc:Agent>
    </dc:creator>
   </cc:Work>
  </rdf:RDF>
 </metadata>
 <defs>
  <style type="text/css">*{stroke-linejoin: round; stroke-linecap: butt}</style>
 </defs>
 <g id="figure_1">
  <g id="patch_1">
   <path d="M 0 432 
L 864 432 
L 864 0 
L 0 0 
z
" style="fill: #ffffff"/>
  </g>
  <g id="axes_1">
   <g id="patch_2">
    <path d="M 48.49 404.12 
L 853.2 404.12 
L 853.2 35.28 
L 48.49 35.28 
z
" style="fill: #ffffff"/>
   </g>
   <g id="matplotlib.axis_1">
    <g id="xtick_1">
     <g id="line2d_1">
      <defs>
       <path id="m7f0a6306a6" d="M 0 0 
L 0 3.5 
" style="stroke: #000000; stroke-width: 0.8"/>
      </defs>
      <g>
       <use xlink:href="#m7f0a6306a6" x="55.000614" y="404.12" style="stroke: #000000; stroke-width: 0.8"/>
      </g>
     </g>
     <g id="text_1">
      <!-- 1980 -->
      <g transform="translate(42.275614 418.718437) scale(0.1 -0.1)">
       <defs>
        <path id="DejaVuSans-31" d="M 794 531 
L 1825 531 
L 1825 4091 
L 703 3866 
L 703 4441 
L 1819 4666 
L 2450 4666 
L 2450 531 
L 3481 531 
L 3481 0 
L 794 0 
L 794 531 
z
" transform="scale(0.015625)"/>
        <path id="DejaVuSans-39" d="M 703 97 
L 703 672 
Q 941 559 1184 500 
Q 1428 441 1663 441 
Q 2288 441 2617 861 
Q 2947 1281 2994 2138 
Q 2813 1869 2534 1725 
Q 2256 1581 1919 1581 
Q 1219 1581 811 2004 
Q 403 2428 403 3163 
Q 403 3881 828 4315 
Q 1253 4750 1959 4750 
Q 2769 4750 3195 4129 
Q 3622 3509 3622 2328 
Q 3622 1225 3098 567 
Q 2575 -91 1691 -91 
Q 1453 -91 1209 -44 
Q 966 3 703 97 
z
M 1959 2075 
Q 2384 2075 2632 2365 
Q 2881 2656 2881 3163 
Q 2881 3666 2632 3958 
Q 2384 4250 1959 4250 
Q 1534 4250 1286 3958 
Q 1038 3666 1038 3163 
Q 1038 2656 1286 2365 
Q 1534 2075 1959 2075 
z
" transform="scale(0.015625)"/>
        <path id="DejaVuSans-38" d="M 2034 2216 
Q 1584 2216 1326 1975 
Q 1069 1734 1069 1313 
Q 1069 891 1326 650 
Q 1584 409 2034 409 
Q 2484 409 2743 651 
Q 3003 894 3003 1313 
Q 3003 1734 2745 1975 
Q 2488 2216 2034 2216 
z
M 1403 2484 
Q 997 2584 770 2862 
Q 544 3141 544 3541 
Q 544 4100 942 4425 
Q 1341 4750 2034 4750 
Q 2731 4750 3128 4425 
Q 3525 4100 3525 3541 
Q 3525 3141 3298 2862 
Q 3072 2584 2669 2484 
Q 3125 2378 3379 2068 
Q 3634 1759 3634 1313 
Q 3634 634 3220 271 
Q 2806 -91 2034 -91 
Q 1263 -91 848 271 
Q 434 634 434 1313 
Q 434 1759 690 2068 
Q 947 2378 1403 2484 
z
M 1172 3481 
Q 1172 3119 1398 2916 
Q 1625 2713 2034 2713 
Q 2441 2713 2670 2916 
Q 2900 3119 2900 3481 
Q 2900 3844 2670 4047 
Q 2441 4250 2034 4250 
Q 1625 4250 1398 4047 
Q 1172 3844 1172 3481 
z
" transform="scale(0.015625)"/>
        <path id="DejaVuSans-30" d="M 2034 4250 
Q 1547 4250 1301 3770 
Q 1056 3291 1056 2328 
Q 1056 1369 1301 889 
Q 1547 409 2034 409 
Q 2525 409 2770 889 
Q 3016 1369 3016 2328 
Q 3016 3291 2770 3770 
Q 2525 4250 2034 4250 
z
M 2034 4750 
Q 2819 4750 3233 4129 
Q 3647 3509 3647 2328 
Q 3647 1150 3233 529 
Q 2819 -91 2034 -91 
Q 1250 -91 836 529 
Q 422 1150 422 2328 
Q 422 3509 836 4129 
Q 1250 4750 2034 4750 
z
" transform="scale(0.015625)"/>
       </defs>
       <use xlink:href="#DejaVuSans-31"/>
       <use xlink:href="#DejaVuSans-39" x="63.623047"/>
       <use xlink:href="#DejaVuSans-38" x="127.246094"/>
       <use xlink:href="#DejaVuSans-30" x="190.869141"/>
      </g>
     </g>
    </g>
    <g id="xtick_2">
     <g id="line2d_2">
      <g>
       <use xlink:href="#m7f0a6306a6" x="141.101893" y="404.12" style="stroke: #000000; stroke-width: 0.8"/>
      </g>
     </g>
     <g id="text_2">
      <!-- 1985 -->
      <g transform="translate(128.376893 418.718437) scale(0.1 -0.1)">
       <defs>
        <path id="DejaVuSans-35" d="M 691 4666 
L 3169 4666 
L 3169 4134 
L 1269 4134 
L 1269 2991 
Q 1406 3038 1543 3061 
Q 1681 3084 1819 3084 
Q 2600 3084 3056 2656 
Q 3513 2228 3513 1497 
Q 3513 744 3044 326 
Q 2575 -91 1722 -91 
Q 1428 -91 1123 -41 
Q 819 9 494 109 
L 494 744 
Q 775 591 1075 516 
Q 1375 441 1709 441 
Q 2250 441 2565 725 
Q 2881 1009 2881 1497 
Q 2881 1984 2565 2268 
Q 2250 2553 1709 2553 
Q 1456 2553 1204 2497 
Q 953 2441 691 2322 
L 691 4666 
z
" transform="scale(0.015625)"/>
       </defs>
       <use xlink:href="#DejaVuSans-31"/>
       <use xlink:href="#DejaVuSans-39" x="63.623047"/>
       <use xlink:href="#DejaVuSans-38" x="127.246094"/>
       <use xlink:href="#DejaVuSans-35" x="190.869141"/>
      </g>
     </g>
    </g>
    <g id="xtick_3">
     <g id="line2d_3">
      <g>
       <use xlink:href="#m7f0a6306a6" x="227.156045" y="404.12" style="stroke: #000000; stroke-width: 0.8"/>
      </g>
     </g>
     <g id="text_3">
      <!-- 1990 -->
      <g transform="translate(214.431045 418.718437) scale(0.1 -0.1)">
       <use xlink:href="#DejaVuSans-31"/>
       <use xlink:href="#DejaVuSans-39" x="63.623047"/>
       <use xlink:href="#DejaVuSans-39" x="127.246094"/>
       <use xlink:href="#DejaVuSans-30" x="190.869141"/>
      </g>
     </g>
    </g>
    <g id="xtick_4">
     <g id="line2d_4">
      <g>
       <use xlink:href="#m7f0a6306a6" x="313.210197" y="404.12" style="stroke: #000000; stroke-width: 0.8"/>
      </g>
     </g>
     <g id="text_4">
      <!-- 1995 -->
      <g transform="translate(300.485197 418.718437) scale(0.1 -0.1)">
       <use xlink:href="#DejaVuSans-31"/>
       <use xlink:href="#DejaVuSans-39" x="63.623047"/>
       <use xlink:href="#DejaVuSans-39" x="127.246094"/>
       <use xlink:href="#DejaVuSans-35" x="190.869141"/>
      </g>
     </g>
    </g>
    <g id="xtick_5">
     <g id="line2d_5">
      <g>
       <use xlink:href="#m7f0a6306a6" x="399.264349" y="404.12" style="stroke: #000000; stroke-width: 0.8"/>
      </g>
     </g>
     <g id="text_5">
      <!-- 2000 -->
      <g transform="translate(386.539349 418.718437) scale(0.1 -0.1)">
       <defs>
        <path id="DejaVuSans-32" d="M 1228 531 
L 3431 531 
L 3431 0 
L 469 0 
L 469 531 
Q 828 903 1448 1529 
Q 2069 2156 2228 2338 
Q 2531 2678 2651 2914 
Q 2772 3150 2772 3378 
Q 2772 3750 2511 3984 
Q 2250 4219 1831 4219 
Q 1534 4219 1204 4116 
Q 875 4013 500 3803 
L 500 4441 
Q 881 4594 1212 4672 
Q 1544 4750 1819 4750 
Q 2544 4750 2975 4387 
Q 3406 4025 3406 3419 
Q 3406 3131 3298 2873 
Q 3191 2616 2906 2266 
Q 2828 2175 2409 1742 
Q 1991 1309 1228 531 
z
" transform="scale(0.015625)"/>
       </defs>
       <use xlink:href="#DejaVuSans-32"/>
       <use xlink:href="#DejaVuSans-30" x="63.623047"/>
       <use xlink:href="#DejaVuSans-30" x="127.246094"/>
       <use xlink:href="#DejaVuSans-30" x="190.869141"/>
      </g>
     </g>
    </g>
    <g id="xtick_6">
     <g id="line2d_6">
      <g>
       <use xlink:href="#m7f0a6306a6" x="485.365628" y="404.12" style="stroke: #000000; stroke-width: 0.8"/>
      </g>
     </g>
     <g id="text_6">
      <!-- 2005 -->
      <g transform="translate(472.640628 418.718437) scale(0.1 -0.1)">
       <use xlink:href="#DejaVuSans-32"/>
       <use xlink:href="#DejaVuSans-30" x="63.623047"/>
       <use xlink:href="#DejaVuSans-30" x="127.246094"/>
       <use xlink:href="#DejaVuSans-35" x="190.869141"/>
      </g>
     </g>
    </g>
    <g id="xtick_7">
     <g id="line2d_7">
      <g>
       <use xlink:href="#m7f0a6306a6" x="571.41978" y="404.12" style="stroke: #000000; stroke-width: 0.8"/>
      </g>
     </g>
     <g id="text_7">
      <!-- 2010 -->
      <g transform="translate(558.69478 418.718437) scale(0.1 -0.1)">
       <use xlink:href="#DejaVuSans-32"/>
       <use xlink:href="#DejaVuSans-30" x="63.623047"/>
       <use xlink:href="#DejaVuSans-31" x="127.246094"/>
       <use xlink:href="#DejaVuSans-30" x="190.869141"/>
      </g>
     </g>
    </g>
    <g id="xtick_8">
     <g id="line2d_8">
      <g>
       <use xlink:href="#m7f0a6306a6" x="657.473932" y="404.12" style="stroke: #000000; stroke-width: 0.8"/>
      </g>
     </g>
     <g id="text_8">
      <!-- 2015 -->
      <g transform="translate(644.748932 418.718437) scale(0.1 -0.1)">
       <use xlink:href="#DejaVuSans-32"/>
       <use xlink:href="#DejaVuSans-30" x="63.623047"/>
       <use xlink:href="#DejaVuSans-31" x="127.246094"/>
       <use xlink:href="#DejaVuSans-35" x="190.869141"/>
      </g>
     </g>
    </g>
    <g id="xtick_9">
     <g id="line2d_9">
      <g>
       <use xlink:href="#m7f0a6306a6" x="743.528083" y="404.12" style="stroke: #000000; stroke-width: 0.8"/>
      </g>
     </g>
     <g id="text_9">
      <!-- 2020 -->
      <g transform="translate(730.803083 418.718437) scale(0.1 -0.1)">
       <use xlink:href="#DejaVuSans-32"/>
       <use xlink:href="#DejaVuSans-30" x="63.623047"/>
       <use xlink:href="#DejaVuSans-32" x="127.246094"/>
       <use xlink:href="#DejaVuSans-30" x="190.869141"/>
      </g>
     </g>
    </g>
    <g id="xtick_10">
     <g id="line2d_10">
      <g>
       <use xlink:href="#m7f0a6306a6" x="829.629363" y="404.12" style="stroke: #000000; stroke-width: 0.8"/>
      </g>
     </g>
     <g id="text_10">
      <!-- 2025 -->
      <g transform="translate(816.904363 418.718437) scale(0.1 -0.1)">
       <use xlink:href="#DejaVuSans-32"/>
       <use xlink:href="#DejaVuSans-30" x="63.623047"/>
       <use xlink:href="#DejaVuSans-32" x="127.246094"/>
       <use xlink:href="#DejaVuSans-35" x="190.869141"/>
      </g>
     </g>
    </g>
   </g>
   <g id="matplotlib.axis_2">
    <g id="ytick_1">
     <g id="line2d_11">
      <defs>
       <path id="m9ec59e37b2" d="M 0 0 
L -3.5 0 
" style="stroke: #000000; stroke-width: 0.8"/>
      </defs>
      <g>
       <use xlink:href="#m9ec59e37b2" x="48.49" y="397.051978" style="stroke: #000000; stroke-width: 0.8"/>
      </g>
     </g>
     <g id="text_11">
      <!-- −0.02 -->
      <g transform="translate(10.844687 400.851196) scale(0.1 -0.1)">
       <defs>
        <path id="DejaVuSans-2212" d="M 678 2272 
L 4684 2272 
L 4684 1741 
L 678 1741 
L 678 2272 
z
" transform="scale(0.015625)"/>
        <path id="DejaVuSans-2e" d="M 684 794 
L 1344 794 
L 1344 0 
L 684 0 
L 684 794 
z
" transform="scale(0.015625)"/>
       </defs>
       <use xlink:href="#DejaVuSans-2212"/>
       <use xlink:href="#DejaVuSans-30" x="83.789062"/>
       <use xlink:href="#DejaVuSans-2e" x="147.412109"/>
       <use xlink:href="#DejaVuSans-30" x="179.199219"/>
       <use xlink:href="#DejaVuSans-32" x="242.822266"/>
      </g>
     </g>
    </g>
    <g id="ytick_2">
     <g id="line2d_12">
      <g>
       <use xlink:href="#m9ec59e37b2" x="48.49" y="331.768285" style="stroke: #000000; stroke-width: 0.8"/>
      </g>
     </g>
     <g id="text_12">
      <!-- 0.00 -->
      <g transform="translate(19.224375 335.567504) scale(0.1 -0.1)">
       <use xlink:href="#DejaVuSans-30"/>
       <use xlink:href="#DejaVuSans-2e" x="63.623047"/>
       <use xlink:href="#DejaVuSans-30" x="95.410156"/>
       <use xlink:href="#DejaVuSans-30" x="159.033203"/>
      </g>
     </g>
    </g>
    <g id="ytick_3">
     <g id="line2d_13">
      <g>
       <use xlink:href="#m9ec59e37b2" x="48.49" y="266.484593" style="stroke: #000000; stroke-width: 0.8"/>
      </g>
     </g>
     <g id="text_13">
      <!-- 0.02 -->
      <g transform="translate(19.224375 270.283812) scale(0.1 -0.1)">
       <use xlink:href="#DejaVuSans-30"/>
       <use xlink:href="#DejaVuSans-2e" x="63.623047"/>
       <use xlink:href="#DejaVuSans-30" x="95.410156"/>
       <use xlink:href="#DejaVuSans-32" x="159.033203"/>
      </g>
     </g>
    </g>
    <g id="ytick_4">
     <g id="line2d_14">
      <g>
       <use xlink:href="#m9ec59e37b2" x="48.49" y="201.200901" style="stroke: #000000; stroke-width: 0.8"/>
      </g>
     </g>
     <g id="text_14">
      <!-- 0.04 -->
      <g transform="translate(19.224375 205.00012) scale(0.1 -0.1)">
       <defs>
        <path id="DejaVuSans-34" d="M 2419 4116 
L 825 1625 
L 2419 1625 
L 2419 4116 
z
M 2253 4666 
L 3047 4666 
L 3047 1625 
L 3713 1625 
L 3713 1100 
L 3047 1100 
L 3047 0 
L 2419 0 
L 2419 1100 
L 313 1100 
L 313 1709 
L 2253 4666 
z
" transform="scale(0.015625)"/>
       </defs>
       <use xlink:href="#DejaVuSans-30"/>
       <use xlink:href="#DejaVuSans-2e" x="63.623047"/>
       <use xlink:href="#DejaVuSans-30" x="95.410156"/>
       <use xlink:href="#DejaVuSans-34" x="159.033203"/>
      </g>
     </g>
    </g>
    <g id="ytick_5">
     <g id="line2d_15">
      <g>
       <use xlink:href="#m9ec59e37b2" x="48.49" y="135.917209" style="stroke: #000000; stroke-width: 0.8"/>
      </g>
     </g>
     <g id="text_15">
      <!-- 0.06 -->
      <g transform="translate(19.224375 139.716427) scale(0.1 -0.1)">
       <defs>
        <path id="DejaVuSans-36" d="M 2113 2584 
Q 1688 2584 1439 2293 
Q 1191 2003 1191 1497 
Q 1191 994 1439 701 
Q 1688 409 2113 409 
Q 2538 409 2786 701 
Q 3034 994 3034 1497 
Q 3034 2003 2786 2293 
Q 2538 2584 2113 2584 
z
M 3366 4563 
L 3366 3988 
Q 3128 4100 2886 4159 
Q 2644 4219 2406 4219 
Q 1781 4219 1451 3797 
Q 1122 3375 1075 2522 
Q 1259 2794 1537 2939 
Q 1816 3084 2150 3084 
Q 2853 3084 3261 2657 
Q 3669 2231 3669 1497 
Q 3669 778 3244 343 
Q 2819 -91 2113 -91 
Q 1303 -91 875 529 
Q 447 1150 447 2328 
Q 447 3434 972 4092 
Q 1497 4750 2381 4750 
Q 2619 4750 2861 4703 
Q 3103 4656 3366 4563 
z
" transform="scale(0.015625)"/>
       </defs>
       <use xlink:href="#DejaVuSans-30"/>
       <use xlink:href="#DejaVuSans-2e" x="63.623047"/>
       <use xlink:href="#DejaVuSans-30" x="95.410156"/>
       <use xlink:href="#DejaVuSans-36" x="159.033203"/>
      </g>
     </g>
    </g>
    <g id="ytick_6">
     <g id="line2d_16">
      <g>
       <use xlink:href="#m9ec59e37b2" x="48.49" y="70.633517" style="stroke: #000000; stroke-width: 0.8"/>
      </g>
     </g>
     <g id="text_16">
      <!-- 0.08 -->
      <g transform="translate(19.224375 74.432735) scale(0.1 -0.1)">
       <use xlink:href="#DejaVuSans-30"/>
       <use xlink:href="#DejaVuSans-2e" x="63.623047"/>
       <use xlink:href="#DejaVuSans-30" x="95.410156"/>
       <use xlink:href="#DejaVuSans-38" x="159.033203"/>
      </g>
     </g>
    </g>
   </g>
   <g id="line2d_17">
    <path d="M 85.067727 106.317733 
L 89.403424 141.907837 
L 93.644866 186.7192 
L 97.933436 214.450868 
L 102.269132 224.05813 
L 106.604829 249.299982 
L 110.846271 226.221131 
L 115.134841 180.77199 
L 119.470537 187.986112 
L 123.806234 191.548567 
L 128.094803 196.164177 
L 132.383373 212.91631 
L 136.719069 214.026361 
L 141.054766 222.336809 
L 145.296208 217.07234 
L 149.584778 230.402452 
L 153.920474 276.976253 
L 158.256171 277.314789 
L 162.497613 287.846535 
L 166.786183 262.254162 
L 171.121879 208.026649 
L 175.457576 192.909019 
L 179.699018 185.008024 
L 183.987588 203.417863 
L 188.323284 202.931544 
L 192.658981 197.623712 
L 196.94755 191.322572 
L 201.23612 178.335704 
L 205.571816 163.425526 
L 209.907513 177.331779 
L 214.148955 181.753157 
L 218.437525 162.884932 
L 222.773221 181.357192 
L 227.108918 150.279272 
L 231.35036 126.136751 
L 235.63893 157.599143 
L 239.974626 173.688248 
L 244.310323 205.300763 
L 248.551765 235.045684 
L 252.840334 239.012854 
L 257.176031 230.714904 
L 261.511728 231.503229 
L 265.800297 231.514006 
L 270.088867 228.242969 
L 274.424563 229.859757 
L 278.76026 239.89554 
L 283.001702 242.160214 
L 287.290272 249.669557 
L 291.625968 252.558814 
L 295.961665 238.656049 
L 300.203107 245.299819 
L 304.491676 237.594854 
L 308.827373 232.340279 
L 313.16307 244.888847 
L 317.404512 245.352719 
L 321.693081 242.397808 
L 326.028778 238.853024 
L 330.364475 236.474007 
L 334.653044 227.772807 
L 338.941614 234.958168 
L 343.27731 257.408534 
L 347.613007 259.906473 
L 351.854449 268.692254 
L 356.143018 285.438802 
L 360.478715 278.089979 
L 369.055854 281.322407 
L 373.344423 275.338669 
L 377.68012 262.914913 
L 382.015817 256.568925 
L 386.257259 248.30902 
L 390.545828 226.109872 
L 394.881525 225.711746 
L 399.217222 219.232626 
L 403.505791 220.680087 
L 407.79436 217.269158 
L 412.130057 221.440367 
L 416.465754 243.734025 
L 420.707196 269.932412 
L 424.995765 294.689323 
L 429.331462 291.901318 
L 433.667159 282.171783 
L 437.908601 258.822188 
L 442.19717 238.889951 
L 446.532867 262.085488 
L 450.868564 258.18541 
L 455.110006 270.609793 
L 459.398575 272.948796 
L 463.734272 239.217795 
L 468.069969 243.292013 
L 472.358538 222.295091 
L 476.647107 231.385708 
L 480.982804 236.000409 
L 485.318501 209.447504 
L 489.559943 211.04129 
L 493.848512 210.599941 
L 498.184209 203.980838 
L 502.519906 221.615201 
L 506.761348 266.967851 
L 511.049917 253.671345 
L 515.385614 245.633077 
L 519.721311 254.350994 
L 523.962753 194.647762 
L 528.251322 192.164483 
L 532.587019 199.828322 
L 536.922715 160.121608 
L 541.211285 282.185276 
L 545.499854 334.289077 
L 549.835551 363.446551 
L 554.171248 387.354545 
L 558.41269 281.293198 
L 562.701259 254.950095 
L 571.372653 289.146554 
L 575.614095 295.576207 
L 579.902664 262.200753 
L 584.238361 222.538415 
L 588.574057 209.36367 
L 592.8155 220.441264 
L 597.104069 242.608272 
L 601.439766 269.827671 
L 605.775462 276.017493 
L 610.064032 269.903005 
L 614.352601 278.057402 
L 618.688298 284.502619 
L 623.023995 281.867199 
L 627.265437 291.050375 
L 631.554006 287.543147 
L 635.889703 262.524028 
L 640.225399 275.040239 
L 644.466842 292.667349 
L 648.755411 332.411185 
L 653.091108 332.828756 
L 657.426804 328.902275 
L 661.668247 317.17912 
L 665.956816 294.153529 
L 670.292513 297.656865 
L 674.628209 297.383457 
L 678.916779 273.643855 
L 683.205348 246.556865 
L 687.541045 270.109238 
L 691.876741 266.866004 
L 696.118184 263.539293 
L 700.406753 260.633926 
L 704.74245 244.292952 
L 709.078146 244.443865 
L 713.319589 259.731344 
L 717.608158 281.134397 
L 721.943855 270.894297 
L 726.279551 272.577528 
L 730.520994 266.250157 
L 734.809563 263.519425 
L 739.14526 316.987259 
L 743.480956 290.185775 
L 747.769526 291.880512 
L 752.058095 271.341849 
L 756.393792 172.652425 
L 760.729488 160.713781 
L 764.970931 113.762416 
L 769.2595 68.885315 
L 773.595197 52.045455 
L 777.930893 59.942452 
L 782.172336 95.974288 
L 786.460905 139.971065 
L 790.796602 202.8064 
L 795.132298 219.808458 
L 795.132298 219.808458 
" clip-path="url(#pe007ad5522)" style="fill: none; stroke: #000000; stroke-width: 1.5; stroke-linecap: square"/>
   </g>
   <g id="line2d_18">
    <path d="M 85.067727 59.435053 
L 89.403424 66.287173 
L 93.644866 126.474924 
L 97.933436 152.38295 
L 102.269132 124.678137 
L 106.604829 161.839375 
L 110.846271 211.116198 
L 115.134841 190.257397 
L 119.470537 187.412606 
L 123.806234 170.750367 
L 128.094803 194.40372 
L 132.383373 173.340005 
L 136.719069 178.244934 
L 141.054766 192.499809 
L 145.296208 208.054025 
L 149.584778 191.166315 
L 153.920474 196.9229 
L 158.256171 212.883433 
L 162.497613 220.447377 
L 166.786183 252.777224 
L 171.121879 222.446027 
L 175.457576 219.784099 
L 179.699018 215.001276 
L 183.987588 188.827885 
L 188.323284 182.679032 
L 192.658981 190.28753 
L 196.94755 193.200564 
L 201.23612 182.185588 
L 205.571816 166.968906 
L 209.907513 167.348492 
L 214.148955 169.594694 
L 218.437525 154.059827 
L 222.773221 189.730725 
L 227.108918 195.023524 
L 231.35036 181.605522 
L 235.63893 198.033842 
L 239.974626 178.165312 
L 244.310323 152.401093 
L 248.551765 215.157393 
L 252.840334 214.510149 
L 257.176031 212.726783 
L 261.511728 217.281585 
L 265.800297 223.719865 
L 270.088867 219.234072 
L 274.424563 225.075551 
L 278.76026 225.111542 
L 283.001702 226.976951 
L 287.290272 220.070013 
L 291.625968 228.922643 
L 295.961665 230.843588 
L 300.203107 229.953232 
L 304.491676 223.951986 
L 313.16307 220.206266 
L 317.404512 219.754183 
L 321.693081 216.976113 
L 326.028778 226.375548 
L 330.364475 237.287218 
L 334.653044 241.36617 
L 338.941614 232.555393 
L 343.27731 232.259465 
L 347.613007 232.14932 
L 351.854449 231.875838 
L 360.478715 243.721156 
L 364.814412 246.65341 
L 369.055854 262.062135 
L 373.344423 259.574279 
L 377.68012 255.760784 
L 382.015817 260.820761 
L 386.257259 262.731813 
L 390.545828 255.071521 
L 394.881525 253.479267 
L 399.217222 249.821755 
L 403.505791 249.783476 
L 407.79436 236.35513 
L 412.130057 242.523384 
L 416.465754 240.393033 
L 420.707196 249.707375 
L 424.995765 246.09761 
L 429.331462 250.227452 
L 433.667159 267.651694 
L 437.908601 267.657783 
L 442.19717 251.06413 
L 446.532867 257.803058 
L 450.868564 259.727237 
L 455.110006 261.029519 
L 459.398575 269.599176 
L 463.734272 273.915847 
L 468.069969 267.288041 
L 472.358538 276.435166 
L 476.647107 256.87972 
L 480.982804 245.756345 
L 485.318501 254.371078 
L 489.559943 257.595532 
L 493.848512 246.994313 
L 498.184209 246.94822 
L 502.519906 240.061776 
L 506.761348 251.497508 
L 511.049917 243.110408 
L 515.385614 233.817165 
L 519.721311 259.723805 
L 523.962753 251.828493 
L 528.251322 237.566725 
L 532.587019 257.607839 
L 536.922715 246.123123 
L 541.211285 249.083613 
L 545.499854 234.922035 
L 549.835551 228.402973 
L 554.171248 314.767345 
L 558.41269 317.623196 
L 562.701259 281.449124 
L 567.036956 269.544304 
L 571.372653 274.830283 
L 575.614095 276.081315 
L 579.902664 275.249882 
L 584.238361 281.829535 
L 588.574057 274.896646 
L 592.8155 272.315446 
L 597.104069 251.350904 
L 601.439766 268.096229 
L 605.775462 265.028567 
L 610.064032 263.675113 
L 614.352601 262.522697 
L 618.688298 268.521553 
L 623.023995 261.762375 
L 627.265437 265.988048 
L 631.554006 271.483603 
L 635.889703 270.579488 
L 640.225399 271.694406 
L 644.466842 272.397818 
L 648.755411 269.96558 
L 653.091108 263.194429 
L 657.426804 278.289183 
L 661.668247 299.608102 
L 665.956816 271.714551 
L 670.292513 270.041952 
L 678.916779 281.443976 
L 683.205348 265.575899 
L 687.541045 263.197963 
L 691.876741 257.247335 
L 696.118184 252.165237 
L 700.406753 261.179315 
L 704.74245 261.764382 
L 709.078146 258.599827 
L 713.319589 256.909075 
L 717.608158 255.672664 
L 721.943855 255.815468 
L 726.279551 254.277524 
L 730.520994 265.409449 
L 734.809563 256.892682 
L 739.14526 266.396082 
L 743.480956 264.343234 
L 747.769526 264.259066 
L 752.058095 306.836996 
L 756.393792 278.326404 
L 760.729488 264.043722 
L 764.970931 258.598443 
L 769.2595 241.53402 
L 773.595197 228.087146 
L 777.930893 222.759796 
L 782.172336 204.89703 
L 786.460905 172.19186 
L 790.796602 180.645735 
L 795.132298 193.237584 
L 799.373741 229.199914 
L 803.66231 228.011838 
L 807.998007 238.875158 
L 812.333703 241.295904 
L 816.622273 251.776119 
L 816.622273 251.776119 
" clip-path="url(#pe007ad5522)" style="fill: none; stroke-dasharray: 5.55,2.4; stroke-dashoffset: 0; stroke: #ff0000; stroke-width: 1.5"/>
   </g>
   <g id="patch_3">
    <path d="M 48.49 404.12 
L 48.49 35.28 
" style="fill: none; stroke: #000000; stroke-width: 0.8; stroke-linejoin: miter; stroke-linecap: square"/>
   </g>
   <g id="patch_4">
    <path d="M 853.2 404.12 
L 853.2 35.28 
" style="fill: none; stroke: #000000; stroke-width: 0.8; stroke-linejoin: miter; stroke-linecap: square"/>
   </g>
   <g id="patch_5">
    <path d="M 48.49 404.12 
L 853.2 404.12 
" style="fill: none; stroke: #000000; stroke-width: 0.8; stroke-linejoin: miter; stroke-linecap: square"/>
   </g>
   <g id="patch_6">
    <path d="M 48.49 35.28 
L 853.2 35.28 
" style="fill: none; stroke: #000000; stroke-width: 0.8; stroke-linejoin: miter; stroke-linecap: square"/>
   </g>
  </g>
  <g id="axes_2">
   <g id="PolyCollection_1">
    <defs>
     <path id="m766008710c" d="M 85.067727 -27.88 
L 85.067727 -27.88 
L 89.403424 -27.88 
L 93.644866 -27.88 
L 97.933436 -27.88 
L 102.269132 -27.88 
L 106.604829 -27.88 
L 110.846271 -27.88 
L 115.134841 -27.88 
L 119.470537 -27.88 
L 123.806234 -27.88 
L 128.094803 -27.88 
L 132.383373 -27.88 
L 136.719069 -27.88 
L 141.054766 -27.88 
L 145.296208 -27.88 
L 149.584778 -27.88 
L 153.920474 -27.88 
L 158.256171 -27.88 
L 162.497613 -27.88 
L 166.786183 -27.88 
L 171.121879 -27.88 
L 175.457576 -27.88 
L 179.699018 -27.88 
L 183.987588 -27.88 
L 188.323284 -27.88 
L 192.658981 -27.88 
L 196.94755 -27.88 
L 201.23612 -27.88 
L 205.571816 -27.88 
L 209.907513 -27.88 
L 214.148955 -27.88 
L 218.437525 -27.88 
L 222.773221 -27.88 
L 227.108918 -27.88 
L 231.35036 -27.88 
L 235.63893 -27.88 
L 239.974626 -27.88 
L 244.310323 -27.88 
L 248.551765 -27.88 
L 252.840334 -27.88 
L 257.176031 -27.88 
L 261.511728 -27.88 
L 265.800297 -27.88 
L 270.088867 -27.88 
L 274.424563 -27.88 
L 278.76026 -27.88 
L 283.001702 -27.88 
L 287.290272 -27.88 
L 291.625968 -27.88 
L 295.961665 -27.88 
L 300.203107 -27.88 
L 304.491676 -27.88 
L 308.827373 -27.88 
L 313.16307 -27.88 
L 317.404512 -27.88 
L 321.693081 -27.88 
L 326.028778 -27.88 
L 330.364475 -27.88 
L 334.653044 -27.88 
L 338.941614 -27.88 
L 343.27731 -27.88 
L 347.613007 -27.88 
L 351.854449 -27.88 
L 356.143018 -27.88 
L 360.478715 -27.88 
L 364.814412 -27.88 
L 369.055854 -27.88 
L 373.344423 -27.88 
L 377.68012 -27.88 
L 382.015817 -27.88 
L 386.257259 -27.88 
L 390.545828 -27.88 
L 394.881525 -27.88 
L 399.217222 -27.88 
L 403.505791 -27.88 
L 407.79436 -27.88 
L 412.130057 -27.88 
L 416.465754 -27.88 
L 420.707196 -27.88 
L 424.995765 -27.88 
L 429.331462 -27.88 
L 433.667159 -27.88 
L 437.908601 -27.88 
L 442.19717 -27.88 
L 446.532867 -27.88 
L 450.868564 -27.88 
L 455.110006 -27.88 
L 459.398575 -27.88 
L 463.734272 -27.88 
L 468.069969 -27.88 
L 472.358538 -27.88 
L 476.647107 -27.88 
L 480.982804 -27.88 
L 485.318501 -27.88 
L 489.559943 -27.88 
L 493.848512 -27.88 
L 498.184209 -27.88 
L 502.519906 -27.88 
L 506.761348 -27.88 
L 511.049917 -27.88 
L 515.385614 -27.88 
L 519.721311 -27.88 
L 523.962753 -27.88 
L 528.251322 -27.88 
L 532.587019 -27.88 
L 536.922715 -27.88 
L 541.211285 -27.88 
L 545.499854 -27.88 
L 549.835551 -27.88 
L 554.171248 -27.88 
L 558.41269 -27.88 
L 562.701259 -27.88 
L 567.036956 -27.88 
L 571.372653 -27.88 
L 575.614095 -27.88 
L 579.902664 -27.88 
L 584.238361 -27.88 
L 588.574057 -27.88 
L 592.8155 -27.88 
L 597.104069 -27.88 
L 601.439766 -27.88 
L 605.775462 -27.88 
L 610.064032 -27.88 
L 614.352601 -27.88 
L 618.688298 -27.88 
L 623.023995 -27.88 
L 627.265437 -27.88 
L 631.554006 -27.88 
L 635.889703 -27.88 
L 640.225399 -27.88 
L 644.466842 -27.88 
L 648.755411 -27.88 
L 653.091108 -27.88 
L 657.426804 -27.88 
L 661.668247 -27.88 
L 665.956816 -27.88 
L 670.292513 -27.88 
L 674.628209 -27.88 
L 678.916779 -27.88 
L 683.205348 -27.88 
L 687.541045 -27.88 
L 691.876741 -27.88 
L 696.118184 -27.88 
L 700.406753 -27.88 
L 704.74245 -27.88 
L 709.078146 -27.88 
L 713.319589 -27.88 
L 717.608158 -27.88 
L 721.943855 -27.88 
L 726.279551 -27.88 
L 730.520994 -27.88 
L 734.809563 -27.88 
L 739.14526 -27.88 
L 743.480956 -27.88 
L 747.769526 -27.88 
L 752.058095 -27.88 
L 756.393792 -27.88 
L 760.729488 -27.88 
L 764.970931 -27.88 
L 769.2595 -27.88 
L 773.595197 -27.88 
L 777.930893 -27.88 
L 782.172336 -27.88 
L 786.460905 -27.88 
L 790.796602 -27.88 
L 795.132298 -27.88 
L 795.132298 -27.88 
L 795.132298 -27.88 
L 790.796602 -27.88 
L 786.460905 -27.88 
L 782.172336 -27.88 
L 777.930893 -27.88 
L 773.595197 -27.88 
L 769.2595 -27.88 
L 764.970931 -27.88 
L 760.729488 -27.88 
L 756.393792 -27.88 
L 752.058095 -396.72 
L 747.769526 -396.72 
L 743.480956 -27.88 
L 739.14526 -27.88 
L 734.809563 -27.88 
L 730.520994 -27.88 
L 726.279551 -27.88 
L 721.943855 -27.88 
L 717.608158 -27.88 
L 713.319589 -27.88 
L 709.078146 -27.88 
L 704.74245 -27.88 
L 700.406753 -27.88 
L 696.118184 -27.88 
L 691.876741 -27.88 
L 687.541045 -27.88 
L 683.205348 -27.88 
L 678.916779 -27.88 
L 674.628209 -27.88 
L 670.292513 -27.88 
L 665.956816 -27.88 
L 661.668247 -27.88 
L 657.426804 -27.88 
L 653.091108 -27.88 
L 648.755411 -27.88 
L 644.466842 -27.88 
L 640.225399 -27.88 
L 635.889703 -27.88 
L 631.554006 -27.88 
L 627.265437 -27.88 
L 623.023995 -27.88 
L 618.688298 -27.88 
L 614.352601 -27.88 
L 610.064032 -27.88 
L 605.775462 -27.88 
L 601.439766 -27.88 
L 597.104069 -27.88 
L 592.8155 -27.88 
L 588.574057 -27.88 
L 584.238361 -27.88 
L 579.902664 -27.88 
L 575.614095 -27.88 
L 571.372653 -27.88 
L 567.036956 -27.88 
L 562.701259 -396.72 
L 558.41269 -396.72 
L 554.171248 -396.72 
L 549.835551 -396.72 
L 545.499854 -396.72 
L 541.211285 -396.72 
L 536.922715 -396.72 
L 532.587019 -27.88 
L 528.251322 -27.88 
L 523.962753 -27.88 
L 519.721311 -27.88 
L 515.385614 -27.88 
L 511.049917 -27.88 
L 506.761348 -27.88 
L 502.519906 -27.88 
L 498.184209 -27.88 
L 493.848512 -27.88 
L 489.559943 -27.88 
L 485.318501 -27.88 
L 480.982804 -27.88 
L 476.647107 -27.88 
L 472.358538 -27.88 
L 468.069969 -27.88 
L 463.734272 -27.88 
L 459.398575 -27.88 
L 455.110006 -27.88 
L 450.868564 -27.88 
L 446.532867 -27.88 
L 442.19717 -27.88 
L 437.908601 -27.88 
L 433.667159 -27.88 
L 429.331462 -396.72 
L 424.995765 -396.72 
L 420.707196 -396.72 
L 416.465754 -27.88 
L 412.130057 -27.88 
L 407.79436 -27.88 
L 403.505791 -27.88 
L 399.217222 -27.88 
L 394.881525 -27.88 
L 390.545828 -27.88 
L 386.257259 -27.88 
L 382.015817 -27.88 
L 377.68012 -27.88 
L 373.344423 -27.88 
L 369.055854 -27.88 
L 364.814412 -27.88 
L 360.478715 -27.88 
L 356.143018 -27.88 
L 351.854449 -27.88 
L 347.613007 -27.88 
L 343.27731 -27.88 
L 338.941614 -27.88 
L 334.653044 -27.88 
L 330.364475 -27.88 
L 326.028778 -27.88 
L 321.693081 -27.88 
L 317.404512 -27.88 
L 313.16307 -27.88 
L 308.827373 -27.88 
L 304.491676 -27.88 
L 300.203107 -27.88 
L 295.961665 -27.88 
L 291.625968 -27.88 
L 287.290272 -27.88 
L 283.001702 -27.88 
L 278.76026 -27.88 
L 274.424563 -27.88 
L 270.088867 -27.88 
L 265.800297 -27.88 
L 261.511728 -27.88 
L 257.176031 -27.88 
L 252.840334 -27.88 
L 248.551765 -396.72 
L 244.310323 -396.72 
L 239.974626 -396.72 
L 235.63893 -396.72 
L 231.35036 -396.72 
L 227.108918 -396.72 
L 222.773221 -27.88 
L 218.437525 -27.88 
L 214.148955 -27.88 
L 209.907513 -27.88 
L 205.571816 -27.88 
L 201.23612 -27.88 
L 196.94755 -27.88 
L 192.658981 -27.88 
L 188.323284 -27.88 
L 183.987588 -27.88 
L 179.699018 -27.88 
L 175.457576 -27.88 
L 171.121879 -27.88 
L 166.786183 -27.88 
L 162.497613 -27.88 
L 158.256171 -27.88 
L 153.920474 -27.88 
L 149.584778 -27.88 
L 145.296208 -27.88 
L 141.054766 -27.88 
L 136.719069 -27.88 
L 132.383373 -27.88 
L 128.094803 -27.88 
L 123.806234 -27.88 
L 119.470537 -27.88 
L 115.134841 -27.88 
L 110.846271 -27.88 
L 106.604829 -27.88 
L 102.269132 -27.88 
L 97.933436 -27.88 
L 93.644866 -27.88 
L 89.403424 -27.88 
L 85.067727 -27.88 
z
" style="stroke: #808080; stroke-opacity: 0.2"/>
    </defs>
    <g clip-path="url(#pe007ad5522)">
     <use xlink:href="#m766008710c" x="0" y="432" style="fill: #808080; fill-opacity: 0.2; stroke: #808080; stroke-opacity: 0.2"/>
    </g>
   </g>
   <g id="patch_7">
    <path d="M 48.49 404.12 
L 48.49 35.28 
" style="fill: none; stroke: #000000; stroke-width: 0.8; stroke-linejoin: miter; stroke-linecap: square"/>
   </g>
   <g id="patch_8">
    <path d="M 853.2 404.12 
L 853.2 35.28 
" style="fill: none; stroke: #000000; stroke-width: 0.8; stroke-linejoin: miter; stroke-linecap: square"/>
   </g>
   <g id="patch_9">
    <path d="M 48.49 404.12 
L 853.2 404.12 
" style="fill: none; stroke: #000000; stroke-width: 0.8; stroke-linejoin: miter; stroke-linecap: square"/>
   </g>
   <g id="patch_10">
    <path d="M 48.49 35.28 
L 853.2 35.28 
" style="fill: none; stroke: #000000; stroke-width: 0.8; stroke-linejoin: miter; stroke-linecap: square"/>
   </g>
  </g>
  <g id="text_17">
   <!-- t+3 Actuals and t+3 Forecasts -->
   <g transform="translate(324.968906 19.277812) scale(0.14 -0.14)">
    <defs>
     <path id="DejaVuSans-74" d="M 1172 4494 
L 1172 3500 
L 2356 3500 
L 2356 3053 
L 1172 3053 
L 1172 1153 
Q 1172 725 1289 603 
Q 1406 481 1766 481 
L 2356 481 
L 2356 0 
L 1766 0 
Q 1100 0 847 248 
Q 594 497 594 1153 
L 594 3053 
L 172 3053 
L 172 3500 
L 594 3500 
L 594 4494 
L 1172 4494 
z
" transform="scale(0.015625)"/>
     <path id="DejaVuSans-2b" d="M 2944 4013 
L 2944 2272 
L 4684 2272 
L 4684 1741 
L 2944 1741 
L 2944 0 
L 2419 0 
L 2419 1741 
L 678 1741 
L 678 2272 
L 2419 2272 
L 2419 4013 
L 2944 4013 
z
" transform="scale(0.015625)"/>
     <path id="DejaVuSans-33" d="M 2597 2516 
Q 3050 2419 3304 2112 
Q 3559 1806 3559 1356 
Q 3559 666 3084 287 
Q 2609 -91 1734 -91 
Q 1441 -91 1130 -33 
Q 819 25 488 141 
L 488 750 
Q 750 597 1062 519 
Q 1375 441 1716 441 
Q 2309 441 2620 675 
Q 2931 909 2931 1356 
Q 2931 1769 2642 2001 
Q 2353 2234 1838 2234 
L 1294 2234 
L 1294 2753 
L 1863 2753 
Q 2328 2753 2575 2939 
Q 2822 3125 2822 3475 
Q 2822 3834 2567 4026 
Q 2313 4219 1838 4219 
Q 1578 4219 1281 4162 
Q 984 4106 628 3988 
L 628 4550 
Q 988 4650 1302 4700 
Q 1616 4750 1894 4750 
Q 2613 4750 3031 4423 
Q 3450 4097 3450 3541 
Q 3450 3153 3228 2886 
Q 3006 2619 2597 2516 
z
" transform="scale(0.015625)"/>
     <path id="DejaVuSans-20" transform="scale(0.015625)"/>
     <path id="DejaVuSans-41" d="M 2188 4044 
L 1331 1722 
L 3047 1722 
L 2188 4044 
z
M 1831 4666 
L 2547 4666 
L 4325 0 
L 3669 0 
L 3244 1197 
L 1141 1197 
L 716 0 
L 50 0 
L 1831 4666 
z
" transform="scale(0.015625)"/>
     <path id="DejaVuSans-63" d="M 3122 3366 
L 3122 2828 
Q 2878 2963 2633 3030 
Q 2388 3097 2138 3097 
Q 1578 3097 1268 2742 
Q 959 2388 959 1747 
Q 959 1106 1268 751 
Q 1578 397 2138 397 
Q 2388 397 2633 464 
Q 2878 531 3122 666 
L 3122 134 
Q 2881 22 2623 -34 
Q 2366 -91 2075 -91 
Q 1284 -91 818 406 
Q 353 903 353 1747 
Q 353 2603 823 3093 
Q 1294 3584 2113 3584 
Q 2378 3584 2631 3529 
Q 2884 3475 3122 3366 
z
" transform="scale(0.015625)"/>
     <path id="DejaVuSans-75" d="M 544 1381 
L 544 3500 
L 1119 3500 
L 1119 1403 
Q 1119 906 1312 657 
Q 1506 409 1894 409 
Q 2359 409 2629 706 
Q 2900 1003 2900 1516 
L 2900 3500 
L 3475 3500 
L 3475 0 
L 2900 0 
L 2900 538 
Q 2691 219 2414 64 
Q 2138 -91 1772 -91 
Q 1169 -91 856 284 
Q 544 659 544 1381 
z
M 1991 3584 
L 1991 3584 
z
" transform="scale(0.015625)"/>
     <path id="DejaVuSans-61" d="M 2194 1759 
Q 1497 1759 1228 1600 
Q 959 1441 959 1056 
Q 959 750 1161 570 
Q 1363 391 1709 391 
Q 2188 391 2477 730 
Q 2766 1069 2766 1631 
L 2766 1759 
L 2194 1759 
z
M 3341 1997 
L 3341 0 
L 2766 0 
L 2766 531 
Q 2569 213 2275 61 
Q 1981 -91 1556 -91 
Q 1019 -91 701 211 
Q 384 513 384 1019 
Q 384 1609 779 1909 
Q 1175 2209 1959 2209 
L 2766 2209 
L 2766 2266 
Q 2766 2663 2505 2880 
Q 2244 3097 1772 3097 
Q 1472 3097 1187 3025 
Q 903 2953 641 2809 
L 641 3341 
Q 956 3463 1253 3523 
Q 1550 3584 1831 3584 
Q 2591 3584 2966 3190 
Q 3341 2797 3341 1997 
z
" transform="scale(0.015625)"/>
     <path id="DejaVuSans-6c" d="M 603 4863 
L 1178 4863 
L 1178 0 
L 603 0 
L 603 4863 
z
" transform="scale(0.015625)"/>
     <path id="DejaVuSans-73" d="M 2834 3397 
L 2834 2853 
Q 2591 2978 2328 3040 
Q 2066 3103 1784 3103 
Q 1356 3103 1142 2972 
Q 928 2841 928 2578 
Q 928 2378 1081 2264 
Q 1234 2150 1697 2047 
L 1894 2003 
Q 2506 1872 2764 1633 
Q 3022 1394 3022 966 
Q 3022 478 2636 193 
Q 2250 -91 1575 -91 
Q 1294 -91 989 -36 
Q 684 19 347 128 
L 347 722 
Q 666 556 975 473 
Q 1284 391 1588 391 
Q 1994 391 2212 530 
Q 2431 669 2431 922 
Q 2431 1156 2273 1281 
Q 2116 1406 1581 1522 
L 1381 1569 
Q 847 1681 609 1914 
Q 372 2147 372 2553 
Q 372 3047 722 3315 
Q 1072 3584 1716 3584 
Q 2034 3584 2315 3537 
Q 2597 3491 2834 3397 
z
" transform="scale(0.015625)"/>
     <path id="DejaVuSans-6e" d="M 3513 2113 
L 3513 0 
L 2938 0 
L 2938 2094 
Q 2938 2591 2744 2837 
Q 2550 3084 2163 3084 
Q 1697 3084 1428 2787 
Q 1159 2491 1159 1978 
L 1159 0 
L 581 0 
L 581 3500 
L 1159 3500 
L 1159 2956 
Q 1366 3272 1645 3428 
Q 1925 3584 2291 3584 
Q 2894 3584 3203 3211 
Q 3513 2838 3513 2113 
z
" transform="scale(0.015625)"/>
     <path id="DejaVuSans-64" d="M 2906 2969 
L 2906 4863 
L 3481 4863 
L 3481 0 
L 2906 0 
L 2906 525 
Q 2725 213 2448 61 
Q 2172 -91 1784 -91 
Q 1150 -91 751 415 
Q 353 922 353 1747 
Q 353 2572 751 3078 
Q 1150 3584 1784 3584 
Q 2172 3584 2448 3432 
Q 2725 3281 2906 2969 
z
M 947 1747 
Q 947 1113 1208 752 
Q 1469 391 1925 391 
Q 2381 391 2643 752 
Q 2906 1113 2906 1747 
Q 2906 2381 2643 2742 
Q 2381 3103 1925 3103 
Q 1469 3103 1208 2742 
Q 947 2381 947 1747 
z
" transform="scale(0.015625)"/>
     <path id="DejaVuSans-46" d="M 628 4666 
L 3309 4666 
L 3309 4134 
L 1259 4134 
L 1259 2759 
L 3109 2759 
L 3109 2228 
L 1259 2228 
L 1259 0 
L 628 0 
L 628 4666 
z
" transform="scale(0.015625)"/>
     <path id="DejaVuSans-6f" d="M 1959 3097 
Q 1497 3097 1228 2736 
Q 959 2375 959 1747 
Q 959 1119 1226 758 
Q 1494 397 1959 397 
Q 2419 397 2687 759 
Q 2956 1122 2956 1747 
Q 2956 2369 2687 2733 
Q 2419 3097 1959 3097 
z
M 1959 3584 
Q 2709 3584 3137 3096 
Q 3566 2609 3566 1747 
Q 3566 888 3137 398 
Q 2709 -91 1959 -91 
Q 1206 -91 779 398 
Q 353 888 353 1747 
Q 353 2609 779 3096 
Q 1206 3584 1959 3584 
z
" transform="scale(0.015625)"/>
     <path id="DejaVuSans-72" d="M 2631 2963 
Q 2534 3019 2420 3045 
Q 2306 3072 2169 3072 
Q 1681 3072 1420 2755 
Q 1159 2438 1159 1844 
L 1159 0 
L 581 0 
L 581 3500 
L 1159 3500 
L 1159 2956 
Q 1341 3275 1631 3429 
Q 1922 3584 2338 3584 
Q 2397 3584 2469 3576 
Q 2541 3569 2628 3553 
L 2631 2963 
z
" transform="scale(0.015625)"/>
     <path id="DejaVuSans-65" d="M 3597 1894 
L 3597 1613 
L 953 1613 
Q 991 1019 1311 708 
Q 1631 397 2203 397 
Q 2534 397 2845 478 
Q 3156 559 3463 722 
L 3463 178 
Q 3153 47 2828 -22 
Q 2503 -91 2169 -91 
Q 1331 -91 842 396 
Q 353 884 353 1716 
Q 353 2575 817 3079 
Q 1281 3584 2069 3584 
Q 2775 3584 3186 3129 
Q 3597 2675 3597 1894 
z
M 3022 2063 
Q 3016 2534 2758 2815 
Q 2500 3097 2075 3097 
Q 1594 3097 1305 2825 
Q 1016 2553 972 2059 
L 3022 2063 
z
" transform="scale(0.015625)"/>
    </defs>
    <use xlink:href="#DejaVuSans-74"/>
    <use xlink:href="#DejaVuSans-2b" x="39.208984"/>
    <use xlink:href="#DejaVuSans-33" x="122.998047"/>
    <use xlink:href="#DejaVuSans-20" x="186.621094"/>
    <use xlink:href="#DejaVuSans-41" x="218.408203"/>
    <use xlink:href="#DejaVuSans-63" x="285.066406"/>
    <use xlink:href="#DejaVuSans-74" x="340.046875"/>
    <use xlink:href="#DejaVuSans-75" x="379.255859"/>
    <use xlink:href="#DejaVuSans-61" x="442.634766"/>
    <use xlink:href="#DejaVuSans-6c" x="503.914062"/>
    <use xlink:href="#DejaVuSans-73" x="531.697266"/>
    <use xlink:href="#DejaVuSans-20" x="583.796875"/>
    <use xlink:href="#DejaVuSans-61" x="615.583984"/>
    <use xlink:href="#DejaVuSans-6e" x="676.863281"/>
    <use xlink:href="#DejaVuSans-64" x="740.242188"/>
    <use xlink:href="#DejaVuSans-20" x="803.71875"/>
    <use xlink:href="#DejaVuSans-74" x="835.505859"/>
    <use xlink:href="#DejaVuSans-2b" x="874.714844"/>
    <use xlink:href="#DejaVuSans-33" x="958.503906"/>
    <use xlink:href="#DejaVuSans-20" x="1022.126953"/>
    <use xlink:href="#DejaVuSans-46" x="1053.914062"/>
    <use xlink:href="#DejaVuSans-6f" x="1107.808594"/>
    <use xlink:href="#DejaVuSans-72" x="1168.990234"/>
    <use xlink:href="#DejaVuSans-65" x="1207.853516"/>
    <use xlink:href="#DejaVuSans-63" x="1269.376953"/>
    <use xlink:href="#DejaVuSans-61" x="1324.357422"/>
    <use xlink:href="#DejaVuSans-73" x="1385.636719"/>
    <use xlink:href="#DejaVuSans-74" x="1437.736328"/>
    <use xlink:href="#DejaVuSans-73" x="1476.945312"/>
   </g>
  </g>
  <g id="legend_1">
   <g id="patch_11">
    <path d="M 576.50625 110.300625 
L 734.64 110.300625 
Q 737.04 110.300625 737.04 107.900625 
L 737.04 56.259375 
Q 737.04 53.859375 734.64 53.859375 
L 576.50625 53.859375 
Q 574.10625 53.859375 574.10625 56.259375 
L 574.10625 107.900625 
Q 574.10625 110.300625 576.50625 110.300625 
z
" style="fill: #ffffff; opacity: 0.8; stroke: #cccccc; stroke-linejoin: miter"/>
   </g>
   <g id="line2d_19">
    <path d="M 578.90625 63.5775 
L 590.90625 63.5775 
L 602.90625 63.5775 
" style="fill: none; stroke: #000000; stroke-width: 1.5; stroke-linecap: square"/>
   </g>
   <g id="text_18">
    <!-- t+3 Actuals -->
    <g transform="translate(612.50625 67.7775) scale(0.12 -0.12)">
     <use xlink:href="#DejaVuSans-74"/>
     <use xlink:href="#DejaVuSans-2b" x="39.208984"/>
     <use xlink:href="#DejaVuSans-33" x="122.998047"/>
     <use xlink:href="#DejaVuSans-20" x="186.621094"/>
     <use xlink:href="#DejaVuSans-41" x="218.408203"/>
     <use xlink:href="#DejaVuSans-63" x="285.066406"/>
     <use xlink:href="#DejaVuSans-74" x="340.046875"/>
     <use xlink:href="#DejaVuSans-75" x="379.255859"/>
     <use xlink:href="#DejaVuSans-61" x="442.634766"/>
     <use xlink:href="#DejaVuSans-6c" x="503.914062"/>
     <use xlink:href="#DejaVuSans-73" x="531.697266"/>
    </g>
   </g>
   <g id="line2d_20">
    <path d="M 578.90625 81.19125 
L 590.90625 81.19125 
L 602.90625 81.19125 
" style="fill: none; stroke-dasharray: 5.55,2.4; stroke-dashoffset: 0; stroke: #ff0000; stroke-width: 1.5"/>
   </g>
   <g id="text_19">
    <!-- t+3 Mean Forecasts -->
    <g transform="translate(612.50625 85.39125) scale(0.12 -0.12)">
     <defs>
      <path id="DejaVuSans-4d" d="M 628 4666 
L 1569 4666 
L 2759 1491 
L 3956 4666 
L 4897 4666 
L 4897 0 
L 4281 0 
L 4281 4097 
L 3078 897 
L 2444 897 
L 1241 4097 
L 1241 0 
L 628 0 
L 628 4666 
z
" transform="scale(0.015625)"/>
     </defs>
     <use xlink:href="#DejaVuSans-74"/>
     <use xlink:href="#DejaVuSans-2b" x="39.208984"/>
     <use xlink:href="#DejaVuSans-33" x="122.998047"/>
     <use xlink:href="#DejaVuSans-20" x="186.621094"/>
     <use xlink:href="#DejaVuSans-4d" x="218.408203"/>
     <use xlink:href="#DejaVuSans-65" x="304.6875"/>
     <use xlink:href="#DejaVuSans-61" x="366.210938"/>
     <use xlink:href="#DejaVuSans-6e" x="427.490234"/>
     <use xlink:href="#DejaVuSans-20" x="490.869141"/>
     <use xlink:href="#DejaVuSans-46" x="522.65625"/>
     <use xlink:href="#DejaVuSans-6f" x="576.550781"/>
     <use xlink:href="#DejaVuSans-72" x="637.732422"/>
     <use xlink:href="#DejaVuSans-65" x="676.595703"/>
     <use xlink:href="#DejaVuSans-63" x="738.119141"/>
     <use xlink:href="#DejaVuSans-61" x="793.099609"/>
     <use xlink:href="#DejaVuSans-73" x="854.378906"/>
     <use xlink:href="#DejaVuSans-74" x="906.478516"/>
     <use xlink:href="#DejaVuSans-73" x="945.6875"/>
    </g>
   </g>
   <g id="patch_12">
    <path d="M 578.90625 103.005 
L 602.90625 103.005 
L 602.90625 94.605 
L 578.90625 94.605 
z
" style="fill: #808080; fill-opacity: 0.2; stroke: #808080; stroke-opacity: 0.2; stroke-linejoin: miter"/>
   </g>
   <g id="text_20">
    <!-- Recession -->
    <g transform="translate(612.50625 103.005) scale(0.12 -0.12)">
     <defs>
      <path id="DejaVuSans-52" d="M 2841 2188 
Q 3044 2119 3236 1894 
Q 3428 1669 3622 1275 
L 4263 0 
L 3584 0 
L 2988 1197 
Q 2756 1666 2539 1819 
Q 2322 1972 1947 1972 
L 1259 1972 
L 1259 0 
L 628 0 
L 628 4666 
L 2053 4666 
Q 2853 4666 3247 4331 
Q 3641 3997 3641 3322 
Q 3641 2881 3436 2590 
Q 3231 2300 2841 2188 
z
M 1259 4147 
L 1259 2491 
L 2053 2491 
Q 2509 2491 2742 2702 
Q 2975 2913 2975 3322 
Q 2975 3731 2742 3939 
Q 2509 4147 2053 4147 
L 1259 4147 
z
" transform="scale(0.015625)"/>
      <path id="DejaVuSans-69" d="M 603 3500 
L 1178 3500 
L 1178 0 
L 603 0 
L 603 3500 
z
M 603 4863 
L 1178 4863 
L 1178 4134 
L 603 4134 
L 603 4863 
z
" transform="scale(0.015625)"/>
     </defs>
     <use xlink:href="#DejaVuSans-52"/>
     <use xlink:href="#DejaVuSans-65" x="64.982422"/>
     <use xlink:href="#DejaVuSans-63" x="126.505859"/>
     <use xlink:href="#DejaVuSans-65" x="181.486328"/>
     <use xlink:href="#DejaVuSans-73" x="243.009766"/>
     <use xlink:href="#DejaVuSans-73" x="295.109375"/>
     <use xlink:href="#DejaVuSans-69" x="347.208984"/>
     <use xlink:href="#DejaVuSans-6f" x="374.992188"/>
     <use xlink:href="#DejaVuSans-6e" x="436.173828"/>
    </g>
   </g>
  </g>
 </g>
 <defs>
  <clipPath id="pe007ad5522">
   <rect x="48.49" y="35.28" width="804.71" height="368.84"/>
  </clipPath>
 </defs>
</svg>
