<?xml version="1.0" encoding="utf-8" standalone="no"?>
<!DOCTYPE svg PUBLIC "-//W3C//DTD SVG 1.1//EN"
  "http://www.w3.org/Graphics/SVG/1.1/DTD/svg11.dtd">
<svg xmlns:xlink="http://www.w3.org/1999/xlink" width="864pt" height="432pt" viewBox="0 0 864 432" xmlns="http://www.w3.org/2000/svg" version="1.1">
 <metadata>
  <rdf:RDF xmlns:dc="http://purl.org/dc/elements/1.1/" xmlns:cc="http://creativecommons.org/ns#" xmlns:rdf="http://www.w3.org/1999/02/22-rdf-syntax-ns#">
   <cc:Work>
    <dc:type rdf:resource="http://purl.org/dc/dcmitype/StillImage"/>
    <dc:date>2024-03-31T17:29:02.356046</dc:date>
    <dc:format>image/svg+xml</dc:format>
    <dc:creator>
     <cc:Agent>
      <dc:title>Matplotlib v3.8.0, https://matplotlib.org/</dc:title>
     </cc:Agent>
    </dc:creator>
   </cc:Work>
  </rdf:RDF>
 </metadata>
 <defs>
  <style type="text/css">*{stroke-linejoin: round; stroke-linecap: butt}</style>
 </defs>
 <g id="figure_1">
  <g id="patch_1">
   <path d="M 0 432 
L 864 432 
L 864 0 
L 0 0 
z
" style="fill: #ffffff"/>
  </g>
  <g id="axes_1">
   <g id="patch_2">
    <path d="M 48.55 404.2 
L 853.2 404.2 
L 853.2 35.6 
L 48.55 35.6 
z
" style="fill: #ffffff"/>
   </g>
   <g id="matplotlib.axis_1">
    <g id="xtick_1">
     <g id="line2d_1">
      <defs>
       <path id="mc3d0dbea65" d="M 0 0 
L 0 3.5 
" style="stroke: #000000; stroke-width: 0.8"/>
      </defs>
      <g>
       <use xlink:href="#mc3d0dbea65" x="55.060129" y="404.2" style="stroke: #000000; stroke-width: 0.8"/>
      </g>
     </g>
     <g id="text_1">
      <!-- 1980 -->
      <g transform="translate(42.335129 418.798437) scale(0.1 -0.1)">
       <defs>
        <path id="DejaVuSans-31" d="M 794 531 
L 1825 531 
L 1825 4091 
L 703 3866 
L 703 4441 
L 1819 4666 
L 2450 4666 
L 2450 531 
L 3481 531 
L 3481 0 
L 794 0 
L 794 531 
z
" transform="scale(0.015625)"/>
        <path id="DejaVuSans-39" d="M 703 97 
L 703 672 
Q 941 559 1184 500 
Q 1428 441 1663 441 
Q 2288 441 2617 861 
Q 2947 1281 2994 2138 
Q 2813 1869 2534 1725 
Q 2256 1581 1919 1581 
Q 1219 1581 811 2004 
Q 403 2428 403 3163 
Q 403 3881 828 4315 
Q 1253 4750 1959 4750 
Q 2769 4750 3195 4129 
Q 3622 3509 3622 2328 
Q 3622 1225 3098 567 
Q 2575 -91 1691 -91 
Q 1453 -91 1209 -44 
Q 966 3 703 97 
z
M 1959 2075 
Q 2384 2075 2632 2365 
Q 2881 2656 2881 3163 
Q 2881 3666 2632 3958 
Q 2384 4250 1959 4250 
Q 1534 4250 1286 3958 
Q 1038 3666 1038 3163 
Q 1038 2656 1286 2365 
Q 1534 2075 1959 2075 
z
" transform="scale(0.015625)"/>
        <path id="DejaVuSans-38" d="M 2034 2216 
Q 1584 2216 1326 1975 
Q 1069 1734 1069 1313 
Q 1069 891 1326 650 
Q 1584 409 2034 409 
Q 2484 409 2743 651 
Q 3003 894 3003 1313 
Q 3003 1734 2745 1975 
Q 2488 2216 2034 2216 
z
M 1403 2484 
Q 997 2584 770 2862 
Q 544 3141 544 3541 
Q 544 4100 942 4425 
Q 1341 4750 2034 4750 
Q 2731 4750 3128 4425 
Q 3525 4100 3525 3541 
Q 3525 3141 3298 2862 
Q 3072 2584 2669 2484 
Q 3125 2378 3379 2068 
Q 3634 1759 3634 1313 
Q 3634 634 3220 271 
Q 2806 -91 2034 -91 
Q 1263 -91 848 271 
Q 434 634 434 1313 
Q 434 1759 690 2068 
Q 947 2378 1403 2484 
z
M 1172 3481 
Q 1172 3119 1398 2916 
Q 1625 2713 2034 2713 
Q 2441 2713 2670 2916 
Q 2900 3119 2900 3481 
Q 2900 3844 2670 4047 
Q 2441 4250 2034 4250 
Q 1625 4250 1398 4047 
Q 1172 3844 1172 3481 
z
" transform="scale(0.015625)"/>
        <path id="DejaVuSans-30" d="M 2034 4250 
Q 1547 4250 1301 3770 
Q 1056 3291 1056 2328 
Q 1056 1369 1301 889 
Q 1547 409 2034 409 
Q 2525 409 2770 889 
Q 3016 1369 3016 2328 
Q 3016 3291 2770 3770 
Q 2525 4250 2034 4250 
z
M 2034 4750 
Q 2819 4750 3233 4129 
Q 3647 3509 3647 2328 
Q 3647 1150 3233 529 
Q 2819 -91 2034 -91 
Q 1250 -91 836 529 
Q 422 1150 422 2328 
Q 422 3509 836 4129 
Q 1250 4750 2034 4750 
z
" transform="scale(0.015625)"/>
       </defs>
       <use xlink:href="#DejaVuSans-31"/>
       <use xlink:href="#DejaVuSans-39" x="63.623047"/>
       <use xlink:href="#DejaVuSans-38" x="127.246094"/>
       <use xlink:href="#DejaVuSans-30" x="190.869141"/>
      </g>
     </g>
    </g>
    <g id="xtick_2">
     <g id="line2d_2">
      <g>
       <use xlink:href="#mc3d0dbea65" x="141.154988" y="404.2" style="stroke: #000000; stroke-width: 0.8"/>
      </g>
     </g>
     <g id="text_2">
      <!-- 1985 -->
      <g transform="translate(128.429988 418.798437) scale(0.1 -0.1)">
       <defs>
        <path id="DejaVuSans-35" d="M 691 4666 
L 3169 4666 
L 3169 4134 
L 1269 4134 
L 1269 2991 
Q 1406 3038 1543 3061 
Q 1681 3084 1819 3084 
Q 2600 3084 3056 2656 
Q 3513 2228 3513 1497 
Q 3513 744 3044 326 
Q 2575 -91 1722 -91 
Q 1428 -91 1123 -41 
Q 819 9 494 109 
L 494 744 
Q 775 591 1075 516 
Q 1375 441 1709 441 
Q 2250 441 2565 725 
Q 2881 1009 2881 1497 
Q 2881 1984 2565 2268 
Q 2250 2553 1709 2553 
Q 1456 2553 1204 2497 
Q 953 2441 691 2322 
L 691 4666 
z
" transform="scale(0.015625)"/>
       </defs>
       <use xlink:href="#DejaVuSans-31"/>
       <use xlink:href="#DejaVuSans-39" x="63.623047"/>
       <use xlink:href="#DejaVuSans-38" x="127.246094"/>
       <use xlink:href="#DejaVuSans-35" x="190.869141"/>
      </g>
     </g>
    </g>
    <g id="xtick_3">
     <g id="line2d_3">
      <g>
       <use xlink:href="#mc3d0dbea65" x="227.202723" y="404.2" style="stroke: #000000; stroke-width: 0.8"/>
      </g>
     </g>
     <g id="text_3">
      <!-- 1990 -->
      <g transform="translate(214.477723 418.798437) scale(0.1 -0.1)">
       <use xlink:href="#DejaVuSans-31"/>
       <use xlink:href="#DejaVuSans-39" x="63.623047"/>
       <use xlink:href="#DejaVuSans-39" x="127.246094"/>
       <use xlink:href="#DejaVuSans-30" x="190.869141"/>
      </g>
     </g>
    </g>
    <g id="xtick_4">
     <g id="line2d_4">
      <g>
       <use xlink:href="#mc3d0dbea65" x="313.250459" y="404.2" style="stroke: #000000; stroke-width: 0.8"/>
      </g>
     </g>
     <g id="text_4">
      <!-- 1995 -->
      <g transform="translate(300.525459 418.798437) scale(0.1 -0.1)">
       <use xlink:href="#DejaVuSans-31"/>
       <use xlink:href="#DejaVuSans-39" x="63.623047"/>
       <use xlink:href="#DejaVuSans-39" x="127.246094"/>
       <use xlink:href="#DejaVuSans-35" x="190.869141"/>
      </g>
     </g>
    </g>
    <g id="xtick_5">
     <g id="line2d_5">
      <g>
       <use xlink:href="#mc3d0dbea65" x="399.298195" y="404.2" style="stroke: #000000; stroke-width: 0.8"/>
      </g>
     </g>
     <g id="text_5">
      <!-- 2000 -->
      <g transform="translate(386.573195 418.798437) scale(0.1 -0.1)">
       <defs>
        <path id="DejaVuSans-32" d="M 1228 531 
L 3431 531 
L 3431 0 
L 469 0 
L 469 531 
Q 828 903 1448 1529 
Q 2069 2156 2228 2338 
Q 2531 2678 2651 2914 
Q 2772 3150 2772 3378 
Q 2772 3750 2511 3984 
Q 2250 4219 1831 4219 
Q 1534 4219 1204 4116 
Q 875 4013 500 3803 
L 500 4441 
Q 881 4594 1212 4672 
Q 1544 4750 1819 4750 
Q 2544 4750 2975 4387 
Q 3406 4025 3406 3419 
Q 3406 3131 3298 2873 
Q 3191 2616 2906 2266 
Q 2828 2175 2409 1742 
Q 1991 1309 1228 531 
z
" transform="scale(0.015625)"/>
       </defs>
       <use xlink:href="#DejaVuSans-32"/>
       <use xlink:href="#DejaVuSans-30" x="63.623047"/>
       <use xlink:href="#DejaVuSans-30" x="127.246094"/>
       <use xlink:href="#DejaVuSans-30" x="190.869141"/>
      </g>
     </g>
    </g>
    <g id="xtick_6">
     <g id="line2d_6">
      <g>
       <use xlink:href="#mc3d0dbea65" x="485.393054" y="404.2" style="stroke: #000000; stroke-width: 0.8"/>
      </g>
     </g>
     <g id="text_6">
      <!-- 2005 -->
      <g transform="translate(472.668054 418.798437) scale(0.1 -0.1)">
       <use xlink:href="#DejaVuSans-32"/>
       <use xlink:href="#DejaVuSans-30" x="63.623047"/>
       <use xlink:href="#DejaVuSans-30" x="127.246094"/>
       <use xlink:href="#DejaVuSans-35" x="190.869141"/>
      </g>
     </g>
    </g>
    <g id="xtick_7">
     <g id="line2d_7">
      <g>
       <use xlink:href="#mc3d0dbea65" x="571.440789" y="404.2" style="stroke: #000000; stroke-width: 0.8"/>
      </g>
     </g>
     <g id="text_7">
      <!-- 2010 -->
      <g transform="translate(558.715789 418.798437) scale(0.1 -0.1)">
       <use xlink:href="#DejaVuSans-32"/>
       <use xlink:href="#DejaVuSans-30" x="63.623047"/>
       <use xlink:href="#DejaVuSans-31" x="127.246094"/>
       <use xlink:href="#DejaVuSans-30" x="190.869141"/>
      </g>
     </g>
    </g>
    <g id="xtick_8">
     <g id="line2d_8">
      <g>
       <use xlink:href="#mc3d0dbea65" x="657.488525" y="404.2" style="stroke: #000000; stroke-width: 0.8"/>
      </g>
     </g>
     <g id="text_8">
      <!-- 2015 -->
      <g transform="translate(644.763525 418.798437) scale(0.1 -0.1)">
       <use xlink:href="#DejaVuSans-32"/>
       <use xlink:href="#DejaVuSans-30" x="63.623047"/>
       <use xlink:href="#DejaVuSans-31" x="127.246094"/>
       <use xlink:href="#DejaVuSans-35" x="190.869141"/>
      </g>
     </g>
    </g>
    <g id="xtick_9">
     <g id="line2d_9">
      <g>
       <use xlink:href="#mc3d0dbea65" x="743.536261" y="404.2" style="stroke: #000000; stroke-width: 0.8"/>
      </g>
     </g>
     <g id="text_9">
      <!-- 2020 -->
      <g transform="translate(730.811261 418.798437) scale(0.1 -0.1)">
       <use xlink:href="#DejaVuSans-32"/>
       <use xlink:href="#DejaVuSans-30" x="63.623047"/>
       <use xlink:href="#DejaVuSans-32" x="127.246094"/>
       <use xlink:href="#DejaVuSans-30" x="190.869141"/>
      </g>
     </g>
    </g>
    <g id="xtick_10">
     <g id="line2d_10">
      <g>
       <use xlink:href="#mc3d0dbea65" x="829.63112" y="404.2" style="stroke: #000000; stroke-width: 0.8"/>
      </g>
     </g>
     <g id="text_10">
      <!-- 2025 -->
      <g transform="translate(816.90612 418.798437) scale(0.1 -0.1)">
       <use xlink:href="#DejaVuSans-32"/>
       <use xlink:href="#DejaVuSans-30" x="63.623047"/>
       <use xlink:href="#DejaVuSans-32" x="127.246094"/>
       <use xlink:href="#DejaVuSans-35" x="190.869141"/>
      </g>
     </g>
    </g>
   </g>
   <g id="matplotlib.axis_2">
    <g id="ytick_1">
     <g id="line2d_11">
      <defs>
       <path id="m35e77decce" d="M 0 0 
L -3.5 0 
" style="stroke: #000000; stroke-width: 0.8"/>
      </defs>
      <g>
       <use xlink:href="#m35e77decce" x="48.55" y="397.136577" style="stroke: #000000; stroke-width: 0.8"/>
      </g>
     </g>
     <g id="text_11">
      <!-- −0.02 -->
      <g transform="translate(10.904688 400.935795) scale(0.1 -0.1)">
       <defs>
        <path id="DejaVuSans-2212" d="M 678 2272 
L 4684 2272 
L 4684 1741 
L 678 1741 
L 678 2272 
z
" transform="scale(0.015625)"/>
        <path id="DejaVuSans-2e" d="M 684 794 
L 1344 794 
L 1344 0 
L 684 0 
L 684 794 
z
" transform="scale(0.015625)"/>
       </defs>
       <use xlink:href="#DejaVuSans-2212"/>
       <use xlink:href="#DejaVuSans-30" x="83.789062"/>
       <use xlink:href="#DejaVuSans-2e" x="147.412109"/>
       <use xlink:href="#DejaVuSans-30" x="179.199219"/>
       <use xlink:href="#DejaVuSans-32" x="242.822266"/>
      </g>
     </g>
    </g>
    <g id="ytick_2">
     <g id="line2d_12">
      <g>
       <use xlink:href="#m35e77decce" x="48.55" y="331.895364" style="stroke: #000000; stroke-width: 0.8"/>
      </g>
     </g>
     <g id="text_12">
      <!-- 0.00 -->
      <g transform="translate(19.284375 335.694583) scale(0.1 -0.1)">
       <use xlink:href="#DejaVuSans-30"/>
       <use xlink:href="#DejaVuSans-2e" x="63.623047"/>
       <use xlink:href="#DejaVuSans-30" x="95.410156"/>
       <use xlink:href="#DejaVuSans-30" x="159.033203"/>
      </g>
     </g>
    </g>
    <g id="ytick_3">
     <g id="line2d_13">
      <g>
       <use xlink:href="#m35e77decce" x="48.55" y="266.654151" style="stroke: #000000; stroke-width: 0.8"/>
      </g>
     </g>
     <g id="text_13">
      <!-- 0.02 -->
      <g transform="translate(19.284375 270.45337) scale(0.1 -0.1)">
       <use xlink:href="#DejaVuSans-30"/>
       <use xlink:href="#DejaVuSans-2e" x="63.623047"/>
       <use xlink:href="#DejaVuSans-30" x="95.410156"/>
       <use xlink:href="#DejaVuSans-32" x="159.033203"/>
      </g>
     </g>
    </g>
    <g id="ytick_4">
     <g id="line2d_14">
      <g>
       <use xlink:href="#m35e77decce" x="48.55" y="201.412938" style="stroke: #000000; stroke-width: 0.8"/>
      </g>
     </g>
     <g id="text_14">
      <!-- 0.04 -->
      <g transform="translate(19.284375 205.212157) scale(0.1 -0.1)">
       <defs>
        <path id="DejaVuSans-34" d="M 2419 4116 
L 825 1625 
L 2419 1625 
L 2419 4116 
z
M 2253 4666 
L 3047 4666 
L 3047 1625 
L 3713 1625 
L 3713 1100 
L 3047 1100 
L 3047 0 
L 2419 0 
L 2419 1100 
L 313 1100 
L 313 1709 
L 2253 4666 
z
" transform="scale(0.015625)"/>
       </defs>
       <use xlink:href="#DejaVuSans-30"/>
       <use xlink:href="#DejaVuSans-2e" x="63.623047"/>
       <use xlink:href="#DejaVuSans-30" x="95.410156"/>
       <use xlink:href="#DejaVuSans-34" x="159.033203"/>
      </g>
     </g>
    </g>
    <g id="ytick_5">
     <g id="line2d_15">
      <g>
       <use xlink:href="#m35e77decce" x="48.55" y="136.171725" style="stroke: #000000; stroke-width: 0.8"/>
      </g>
     </g>
     <g id="text_15">
      <!-- 0.06 -->
      <g transform="translate(19.284375 139.970944) scale(0.1 -0.1)">
       <defs>
        <path id="DejaVuSans-36" d="M 2113 2584 
Q 1688 2584 1439 2293 
Q 1191 2003 1191 1497 
Q 1191 994 1439 701 
Q 1688 409 2113 409 
Q 2538 409 2786 701 
Q 3034 994 3034 1497 
Q 3034 2003 2786 2293 
Q 2538 2584 2113 2584 
z
M 3366 4563 
L 3366 3988 
Q 3128 4100 2886 4159 
Q 2644 4219 2406 4219 
Q 1781 4219 1451 3797 
Q 1122 3375 1075 2522 
Q 1259 2794 1537 2939 
Q 1816 3084 2150 3084 
Q 2853 3084 3261 2657 
Q 3669 2231 3669 1497 
Q 3669 778 3244 343 
Q 2819 -91 2113 -91 
Q 1303 -91 875 529 
Q 447 1150 447 2328 
Q 447 3434 972 4092 
Q 1497 4750 2381 4750 
Q 2619 4750 2861 4703 
Q 3103 4656 3366 4563 
z
" transform="scale(0.015625)"/>
       </defs>
       <use xlink:href="#DejaVuSans-30"/>
       <use xlink:href="#DejaVuSans-2e" x="63.623047"/>
       <use xlink:href="#DejaVuSans-30" x="95.410156"/>
       <use xlink:href="#DejaVuSans-36" x="159.033203"/>
      </g>
     </g>
    </g>
    <g id="ytick_6">
     <g id="line2d_16">
      <g>
       <use xlink:href="#m35e77decce" x="48.55" y="70.930512" style="stroke: #000000; stroke-width: 0.8"/>
      </g>
     </g>
     <g id="text_16">
      <!-- 0.08 -->
      <g transform="translate(19.284375 74.729731) scale(0.1 -0.1)">
       <use xlink:href="#DejaVuSans-30"/>
       <use xlink:href="#DejaVuSans-2e" x="63.623047"/>
       <use xlink:href="#DejaVuSans-30" x="95.410156"/>
       <use xlink:href="#DejaVuSans-38" x="159.033203"/>
      </g>
     </g>
    </g>
   </g>
   <g id="line2d_17">
    <path d="M 85.125 106.59151 
L 89.460373 142.158455 
L 93.701499 186.940661 
L 97.989749 214.654284 
L 102.325122 224.255294 
L 106.660496 249.480721 
L 110.901622 226.416888 
L 115.189871 180.99732 
L 119.525245 188.206748 
L 123.860618 191.766885 
L 128.148868 196.379491 
L 132.437118 213.120724 
L 136.772491 214.230052 
L 141.107864 222.535093 
L 145.34899 217.27405 
L 149.63724 230.595488 
L 153.972613 277.138984 
L 158.307987 277.477299 
L 162.549113 288.002193 
L 166.837362 262.426473 
L 171.172736 208.234245 
L 175.508109 193.126452 
L 179.749235 185.230597 
L 184.037485 203.628457 
L 188.372858 203.142455 
L 192.708231 197.838077 
L 196.996481 191.541036 
L 201.284731 178.562619 
L 205.620104 163.662143 
L 209.955477 177.559348 
L 214.196603 181.977848 
L 218.484853 163.1219 
L 222.820226 181.582141 
L 227.1556 150.524443 
L 231.396726 126.397631 
L 235.684976 157.839551 
L 240.020349 173.918187 
L 244.355722 205.510133 
L 248.596848 235.235698 
L 252.885098 239.200287 
L 257.220471 230.907737 
L 261.555845 231.695549 
L 265.844094 231.706319 
L 270.132344 228.43741 
L 274.467717 230.053146 
L 278.803091 240.082399 
L 283.044217 242.3456 
L 287.332466 249.850057 
L 291.66784 252.737433 
L 296.003213 238.843714 
L 300.244339 245.483161 
L 304.532589 237.78321 
L 308.867962 232.532054 
L 313.203335 245.072457 
L 317.444461 245.536028 
L 321.732711 242.583039 
L 326.068084 239.040561 
L 330.403458 236.663092 
L 334.691707 227.967554 
L 338.979957 235.14824 
L 343.31533 257.583997 
L 347.650704 260.080312 
L 351.89183 268.860376 
L 356.18008 285.596027 
L 360.515453 278.251985 
L 369.091952 281.48231 
L 373.380202 275.502465 
L 377.715575 263.086794 
L 382.050949 256.744935 
L 386.292075 248.490404 
L 390.580324 226.305701 
L 394.915698 225.907834 
L 399.251071 219.43293 
L 403.539321 220.87945 
L 407.82757 217.47074 
L 412.162944 221.639235 
L 416.498317 243.918386 
L 420.739443 270.099726 
L 425.027693 294.840529 
L 429.363066 292.054338 
L 433.698439 282.331133 
L 437.939565 258.996732 
L 442.227815 239.077465 
L 446.563188 262.257908 
L 450.898562 258.360368 
L 455.139688 270.776667 
L 459.427938 273.114147 
L 463.763311 239.405095 
L 468.098684 243.476662 
L 472.386934 222.493402 
L 476.675184 231.578105 
L 481.010557 236.189802 
L 485.34593 209.654175 
L 489.587056 211.246924 
L 493.875306 210.805862 
L 498.210679 204.191067 
L 502.546053 221.813955 
L 506.787179 267.137094 
L 511.075428 253.84924 
L 515.410802 245.816202 
L 519.746175 254.528446 
L 523.987301 194.864063 
L 528.275551 192.3824 
L 532.610924 200.041252 
L 536.946297 160.360375 
L 541.234547 282.344618 
L 545.522797 334.414515 
L 549.85817 363.553016 
L 554.193543 387.445455 
L 558.43467 281.45312 
L 562.722919 255.127158 
L 571.393666 289.301366 
L 575.634792 295.726835 
L 579.923042 262.373098 
L 584.258415 222.736568 
L 588.593788 209.570396 
L 592.834914 220.640782 
L 597.123164 242.793366 
L 601.458537 269.995053 
L 605.793911 276.180848 
L 610.08216 270.070338 
L 614.37041 278.219429 
L 618.705783 284.660453 
L 623.041157 282.026747 
L 627.282283 291.203948 
L 631.570532 287.699002 
L 635.905906 262.696163 
L 640.241279 275.20423 
L 644.482405 292.81987 
L 648.770655 332.537846 
L 653.106028 332.955145 
L 657.441401 329.031218 
L 661.682528 317.315691 
L 665.970777 294.305083 
L 670.306151 297.80614 
L 674.641524 297.53291 
L 678.929774 273.808755 
L 683.218023 246.73939 
L 687.553397 270.276437 
L 691.88877 267.035313 
L 696.129896 263.710767 
L 700.418146 260.807291 
L 704.753519 244.476949 
L 709.088892 244.627765 
L 713.330018 259.905296 
L 717.618268 281.294423 
L 721.953641 271.060986 
L 726.289015 272.743121 
L 730.530141 266.419867 
L 734.81839 263.690912 
L 739.153764 317.123955 
L 743.489137 290.339911 
L 747.777387 292.033545 
L 752.065636 271.508246 
L 756.40101 172.883038 
L 760.736383 160.952163 
L 764.977509 114.031348 
L 769.265759 69.183448 
L 773.601132 52.354545 
L 777.936506 60.246404 
L 782.177632 96.254795 
L 786.465881 140.222944 
L 790.801255 203.017392 
L 795.136628 220.008387 
L 795.136628 220.008387 
" clip-path="url(#pbbce3488c7)" style="fill: none; stroke: #000000; stroke-width: 1.5; stroke-linecap: square"/>
   </g>
   <g id="line2d_18">
    <path d="M 85.125 59.739335 
L 89.460373 66.586997 
L 93.701499 126.735585 
L 97.989749 152.626752 
L 102.325122 124.939967 
L 106.660496 162.077024 
L 110.901622 211.321783 
L 115.189871 190.476555 
L 119.525245 187.633615 
L 123.860618 170.982217 
L 128.148868 194.62018 
L 132.437118 173.570171 
L 136.772491 178.471909 
L 141.107864 192.717508 
L 145.34899 208.261602 
L 149.63724 191.384881 
L 153.972613 197.137721 
L 158.307987 213.087869 
L 162.549113 220.646891 
L 166.837362 252.955701 
L 171.172736 222.64424 
L 175.508109 219.984044 
L 179.749235 215.204334 
L 184.037485 189.047973 
L 188.372858 182.903121 
L 192.708231 190.506669 
L 196.996481 193.417807 
L 201.284731 182.409998 
L 205.620104 167.203217 
L 209.955477 167.582556 
L 214.196603 169.827297 
L 218.484853 154.302538 
L 222.820226 189.950225 
L 227.1556 195.23958 
L 231.396726 181.83031 
L 235.684976 198.24794 
L 240.020349 178.392338 
L 244.355722 152.644883 
L 248.596848 215.360349 
L 252.885098 214.713526 
L 257.220471 212.93132 
L 261.555845 217.483159 
L 265.844094 223.91725 
L 270.132344 219.434375 
L 274.467717 225.272053 
L 278.803091 225.308021 
L 283.044217 227.172216 
L 287.332466 220.269772 
L 291.66784 229.116642 
L 296.003213 231.036337 
L 300.244339 230.146561 
L 304.532589 224.149219 
L 313.203335 220.405937 
L 317.444461 219.954148 
L 321.732711 217.177885 
L 326.068084 226.571204 
L 330.403458 237.475774 
L 334.691707 241.552072 
L 338.979957 232.747028 
L 343.31533 232.451293 
L 347.650704 232.341219 
L 351.89183 232.067915 
L 360.515453 243.905525 
L 364.850826 246.835872 
L 369.091952 262.23457 
L 373.380202 259.748334 
L 377.715575 255.93732 
L 382.050949 260.994004 
L 386.292075 262.903813 
L 390.580324 255.248505 
L 394.915698 253.657287 
L 399.251071 250.002155 
L 403.539321 249.963901 
L 407.82757 236.544293 
L 412.162944 242.708533 
L 416.498317 240.579569 
L 420.739443 249.88785 
L 425.027693 246.280434 
L 429.363066 250.407588 
L 433.698439 267.820493 
L 437.939565 267.826577 
L 442.227815 251.243722 
L 446.563188 257.978265 
L 450.898562 259.901191 
L 455.139688 261.202626 
L 459.427938 269.766707 
L 463.763311 274.080569 
L 468.098684 267.457076 
L 472.386934 276.598249 
L 476.675184 257.055527 
L 481.010557 245.93939 
L 485.34593 254.548517 
L 489.587056 257.770874 
L 493.875306 247.176553 
L 498.210679 247.13049 
L 502.546053 240.248527 
L 506.787179 251.676818 
L 511.075428 243.295175 
L 515.410802 234.007979 
L 519.746175 259.897762 
L 523.987301 252.007587 
L 528.275551 237.755099 
L 532.610924 257.783173 
L 536.946297 246.30593 
L 541.234547 249.264494 
L 545.522797 235.11213 
L 549.85817 228.59731 
L 554.193543 314.905485 
L 558.43467 317.759479 
L 562.722919 281.608945 
L 567.058293 269.711871 
L 571.393666 274.994411 
L 575.634792 276.244628 
L 579.923042 275.413737 
L 584.258415 281.989108 
L 588.593788 275.060731 
L 592.834914 272.48121 
L 597.123164 251.530309 
L 601.458537 268.264738 
L 605.793911 265.199072 
L 610.08216 263.846499 
L 614.37041 262.694832 
L 618.705783 268.689785 
L 623.041157 261.935006 
L 627.282283 266.157929 
L 631.570532 271.649908 
L 635.905906 270.746382 
L 640.241279 271.860574 
L 644.482405 272.563528 
L 648.770655 270.132872 
L 653.106028 263.366128 
L 657.441401 278.45106 
L 661.682528 299.756106 
L 665.970777 271.880706 
L 670.306151 270.209195 
L 678.929774 281.603799 
L 683.218023 265.746048 
L 687.553397 263.36966 
L 691.88877 257.422903 
L 696.129896 252.344112 
L 700.418146 261.352325 
L 704.753519 261.937012 
L 709.088892 258.774515 
L 713.330018 257.084864 
L 717.618268 255.849257 
L 721.953641 255.991968 
L 726.289015 254.455025 
L 730.530141 265.579706 
L 734.81839 257.068481 
L 739.153764 266.565697 
L 743.489137 264.514186 
L 747.777387 264.430072 
L 752.065636 306.980297 
L 756.40101 278.488256 
L 760.736383 264.214868 
L 764.977509 258.773133 
L 769.265759 241.719813 
L 773.601132 228.281688 
L 777.936506 222.957805 
L 782.177632 205.106662 
L 786.465881 172.422773 
L 790.801255 180.871147 
L 795.136628 193.454803 
L 799.377754 229.393733 
L 803.666004 228.20643 
L 808.001377 239.062681 
L 812.33675 241.481852 
L 816.625 251.955247 
L 816.625 251.955247 
" clip-path="url(#pbbce3488c7)" style="fill: none; stroke-dasharray: 5.55,2.4; stroke-dashoffset: 0; stroke: #ff0000; stroke-width: 1.5"/>
   </g>
   <g id="patch_3">
    <path d="M 48.55 404.2 
L 48.55 35.6 
" style="fill: none; stroke: #000000; stroke-width: 0.8; stroke-linejoin: miter; stroke-linecap: square"/>
   </g>
   <g id="patch_4">
    <path d="M 853.2 404.2 
L 853.2 35.6 
" style="fill: none; stroke: #000000; stroke-width: 0.8; stroke-linejoin: miter; stroke-linecap: square"/>
   </g>
   <g id="patch_5">
    <path d="M 48.55 404.2 
L 853.2 404.2 
" style="fill: none; stroke: #000000; stroke-width: 0.8; stroke-linejoin: miter; stroke-linecap: square"/>
   </g>
   <g id="patch_6">
    <path d="M 48.55 35.6 
L 853.2 35.6 
" style="fill: none; stroke: #000000; stroke-width: 0.8; stroke-linejoin: miter; stroke-linecap: square"/>
   </g>
  </g>
  <g id="axes_2">
   <g id="PolyCollection_1">
    <defs>
     <path id="m38d53e5859" d="M 85.125 -27.8 
L 85.125 -27.8 
L 89.460373 -27.8 
L 93.701499 -27.8 
L 97.989749 -27.8 
L 102.325122 -27.8 
L 106.660496 -27.8 
L 110.901622 -27.8 
L 115.189871 -27.8 
L 119.525245 -27.8 
L 123.860618 -27.8 
L 128.148868 -27.8 
L 132.437118 -27.8 
L 136.772491 -27.8 
L 141.107864 -27.8 
L 145.34899 -27.8 
L 149.63724 -27.8 
L 153.972613 -27.8 
L 158.307987 -27.8 
L 162.549113 -27.8 
L 166.837362 -27.8 
L 171.172736 -27.8 
L 175.508109 -27.8 
L 179.749235 -27.8 
L 184.037485 -27.8 
L 188.372858 -27.8 
L 192.708231 -27.8 
L 196.996481 -27.8 
L 201.284731 -27.8 
L 205.620104 -27.8 
L 209.955477 -27.8 
L 214.196603 -27.8 
L 218.484853 -27.8 
L 222.820226 -27.8 
L 227.1556 -27.8 
L 231.396726 -27.8 
L 235.684976 -27.8 
L 240.020349 -27.8 
L 244.355722 -27.8 
L 248.596848 -27.8 
L 252.885098 -27.8 
L 257.220471 -27.8 
L 261.555845 -27.8 
L 265.844094 -27.8 
L 270.132344 -27.8 
L 274.467717 -27.8 
L 278.803091 -27.8 
L 283.044217 -27.8 
L 287.332466 -27.8 
L 291.66784 -27.8 
L 296.003213 -27.8 
L 300.244339 -27.8 
L 304.532589 -27.8 
L 308.867962 -27.8 
L 313.203335 -27.8 
L 317.444461 -27.8 
L 321.732711 -27.8 
L 326.068084 -27.8 
L 330.403458 -27.8 
L 334.691707 -27.8 
L 338.979957 -27.8 
L 343.31533 -27.8 
L 347.650704 -27.8 
L 351.89183 -27.8 
L 356.18008 -27.8 
L 360.515453 -27.8 
L 364.850826 -27.8 
L 369.091952 -27.8 
L 373.380202 -27.8 
L 377.715575 -27.8 
L 382.050949 -27.8 
L 386.292075 -27.8 
L 390.580324 -27.8 
L 394.915698 -27.8 
L 399.251071 -27.8 
L 403.539321 -27.8 
L 407.82757 -27.8 
L 412.162944 -27.8 
L 416.498317 -27.8 
L 420.739443 -27.8 
L 425.027693 -27.8 
L 429.363066 -27.8 
L 433.698439 -27.8 
L 437.939565 -27.8 
L 442.227815 -27.8 
L 446.563188 -27.8 
L 450.898562 -27.8 
L 455.139688 -27.8 
L 459.427938 -27.8 
L 463.763311 -27.8 
L 468.098684 -27.8 
L 472.386934 -27.8 
L 476.675184 -27.8 
L 481.010557 -27.8 
L 485.34593 -27.8 
L 489.587056 -27.8 
L 493.875306 -27.8 
L 498.210679 -27.8 
L 502.546053 -27.8 
L 506.787179 -27.8 
L 511.075428 -27.8 
L 515.410802 -27.8 
L 519.746175 -27.8 
L 523.987301 -27.8 
L 528.275551 -27.8 
L 532.610924 -27.8 
L 536.946297 -27.8 
L 541.234547 -27.8 
L 545.522797 -27.8 
L 549.85817 -27.8 
L 554.193543 -27.8 
L 558.43467 -27.8 
L 562.722919 -27.8 
L 567.058293 -27.8 
L 571.393666 -27.8 
L 575.634792 -27.8 
L 579.923042 -27.8 
L 584.258415 -27.8 
L 588.593788 -27.8 
L 592.834914 -27.8 
L 597.123164 -27.8 
L 601.458537 -27.8 
L 605.793911 -27.8 
L 610.08216 -27.8 
L 614.37041 -27.8 
L 618.705783 -27.8 
L 623.041157 -27.8 
L 627.282283 -27.8 
L 631.570532 -27.8 
L 635.905906 -27.8 
L 640.241279 -27.8 
L 644.482405 -27.8 
L 648.770655 -27.8 
L 653.106028 -27.8 
L 657.441401 -27.8 
L 661.682528 -27.8 
L 665.970777 -27.8 
L 670.306151 -27.8 
L 674.641524 -27.8 
L 678.929774 -27.8 
L 683.218023 -27.8 
L 687.553397 -27.8 
L 691.88877 -27.8 
L 696.129896 -27.8 
L 700.418146 -27.8 
L 704.753519 -27.8 
L 709.088892 -27.8 
L 713.330018 -27.8 
L 717.618268 -27.8 
L 721.953641 -27.8 
L 726.289015 -27.8 
L 730.530141 -27.8 
L 734.81839 -27.8 
L 739.153764 -27.8 
L 743.489137 -27.8 
L 747.777387 -27.8 
L 752.065636 -27.8 
L 756.40101 -27.8 
L 760.736383 -27.8 
L 764.977509 -27.8 
L 769.265759 -27.8 
L 773.601132 -27.8 
L 777.936506 -27.8 
L 782.177632 -27.8 
L 786.465881 -27.8 
L 790.801255 -27.8 
L 795.136628 -27.8 
L 795.136628 -27.8 
L 795.136628 -27.8 
L 790.801255 -27.8 
L 786.465881 -27.8 
L 782.177632 -27.8 
L 777.936506 -27.8 
L 773.601132 -27.8 
L 769.265759 -27.8 
L 764.977509 -27.8 
L 760.736383 -27.8 
L 756.40101 -27.8 
L 752.065636 -396.4 
L 747.777387 -396.4 
L 743.489137 -27.8 
L 739.153764 -27.8 
L 734.81839 -27.8 
L 730.530141 -27.8 
L 726.289015 -27.8 
L 721.953641 -27.8 
L 717.618268 -27.8 
L 713.330018 -27.8 
L 709.088892 -27.8 
L 704.753519 -27.8 
L 700.418146 -27.8 
L 696.129896 -27.8 
L 691.88877 -27.8 
L 687.553397 -27.8 
L 683.218023 -27.8 
L 678.929774 -27.8 
L 674.641524 -27.8 
L 670.306151 -27.8 
L 665.970777 -27.8 
L 661.682528 -27.8 
L 657.441401 -27.8 
L 653.106028 -27.8 
L 648.770655 -27.8 
L 644.482405 -27.8 
L 640.241279 -27.8 
L 635.905906 -27.8 
L 631.570532 -27.8 
L 627.282283 -27.8 
L 623.041157 -27.8 
L 618.705783 -27.8 
L 614.37041 -27.8 
L 610.08216 -27.8 
L 605.793911 -27.8 
L 601.458537 -27.8 
L 597.123164 -27.8 
L 592.834914 -27.8 
L 588.593788 -27.8 
L 584.258415 -27.8 
L 579.923042 -27.8 
L 575.634792 -27.8 
L 571.393666 -27.8 
L 567.058293 -27.8 
L 562.722919 -396.4 
L 558.43467 -396.4 
L 554.193543 -396.4 
L 549.85817 -396.4 
L 545.522797 -396.4 
L 541.234547 -396.4 
L 536.946297 -396.4 
L 532.610924 -27.8 
L 528.275551 -27.8 
L 523.987301 -27.8 
L 519.746175 -27.8 
L 515.410802 -27.8 
L 511.075428 -27.8 
L 506.787179 -27.8 
L 502.546053 -27.8 
L 498.210679 -27.8 
L 493.875306 -27.8 
L 489.587056 -27.8 
L 485.34593 -27.8 
L 481.010557 -27.8 
L 476.675184 -27.8 
L 472.386934 -27.8 
L 468.098684 -27.8 
L 463.763311 -27.8 
L 459.427938 -27.8 
L 455.139688 -27.8 
L 450.898562 -27.8 
L 446.563188 -27.8 
L 442.227815 -27.8 
L 437.939565 -27.8 
L 433.698439 -27.8 
L 429.363066 -396.4 
L 425.027693 -396.4 
L 420.739443 -396.4 
L 416.498317 -27.8 
L 412.162944 -27.8 
L 407.82757 -27.8 
L 403.539321 -27.8 
L 399.251071 -27.8 
L 394.915698 -27.8 
L 390.580324 -27.8 
L 386.292075 -27.8 
L 382.050949 -27.8 
L 377.715575 -27.8 
L 373.380202 -27.8 
L 369.091952 -27.8 
L 364.850826 -27.8 
L 360.515453 -27.8 
L 356.18008 -27.8 
L 351.89183 -27.8 
L 347.650704 -27.8 
L 343.31533 -27.8 
L 338.979957 -27.8 
L 334.691707 -27.8 
L 330.403458 -27.8 
L 326.068084 -27.8 
L 321.732711 -27.8 
L 317.444461 -27.8 
L 313.203335 -27.8 
L 308.867962 -27.8 
L 304.532589 -27.8 
L 300.244339 -27.8 
L 296.003213 -27.8 
L 291.66784 -27.8 
L 287.332466 -27.8 
L 283.044217 -27.8 
L 278.803091 -27.8 
L 274.467717 -27.8 
L 270.132344 -27.8 
L 265.844094 -27.8 
L 261.555845 -27.8 
L 257.220471 -27.8 
L 252.885098 -27.8 
L 248.596848 -396.4 
L 244.355722 -396.4 
L 240.020349 -396.4 
L 235.684976 -396.4 
L 231.396726 -396.4 
L 227.1556 -396.4 
L 222.820226 -27.8 
L 218.484853 -27.8 
L 214.196603 -27.8 
L 209.955477 -27.8 
L 205.620104 -27.8 
L 201.284731 -27.8 
L 196.996481 -27.8 
L 192.708231 -27.8 
L 188.372858 -27.8 
L 184.037485 -27.8 
L 179.749235 -27.8 
L 175.508109 -27.8 
L 171.172736 -27.8 
L 166.837362 -27.8 
L 162.549113 -27.8 
L 158.307987 -27.8 
L 153.972613 -27.8 
L 149.63724 -27.8 
L 145.34899 -27.8 
L 141.107864 -27.8 
L 136.772491 -27.8 
L 132.437118 -27.8 
L 128.148868 -27.8 
L 123.860618 -27.8 
L 119.525245 -27.8 
L 115.189871 -27.8 
L 110.901622 -27.8 
L 106.660496 -27.8 
L 102.325122 -27.8 
L 97.989749 -27.8 
L 93.701499 -27.8 
L 89.460373 -27.8 
L 85.125 -27.8 
z
" style="stroke: #808080; stroke-opacity: 0.2"/>
    </defs>
    <g clip-path="url(#pbbce3488c7)">
     <use xlink:href="#m38d53e5859" x="0" y="432" style="fill: #808080; fill-opacity: 0.2; stroke: #808080; stroke-opacity: 0.2"/>
    </g>
   </g>
   <g id="patch_7">
    <path d="M 48.55 404.2 
L 48.55 35.6 
" style="fill: none; stroke: #000000; stroke-width: 0.8; stroke-linejoin: miter; stroke-linecap: square"/>
   </g>
   <g id="patch_8">
    <path d="M 853.2 404.2 
L 853.2 35.6 
" style="fill: none; stroke: #000000; stroke-width: 0.8; stroke-linejoin: miter; stroke-linecap: square"/>
   </g>
   <g id="patch_9">
    <path d="M 48.55 404.2 
L 853.2 404.2 
" style="fill: none; stroke: #000000; stroke-width: 0.8; stroke-linejoin: miter; stroke-linecap: square"/>
   </g>
   <g id="patch_10">
    <path d="M 48.55 35.6 
L 853.2 35.6 
" style="fill: none; stroke: #000000; stroke-width: 0.8; stroke-linejoin: miter; stroke-linecap: square"/>
   </g>
  </g>
  <g id="text_17">
   <!-- t+3 Actuals and t+3 Forecasts -->
   <g transform="translate(324.968906 19.277812) scale(0.14 -0.14)">
    <defs>
     <path id="DejaVuSans-74" d="M 1172 4494 
L 1172 3500 
L 2356 3500 
L 2356 3053 
L 1172 3053 
L 1172 1153 
Q 1172 725 1289 603 
Q 1406 481 1766 481 
L 2356 481 
L 2356 0 
L 1766 0 
Q 1100 0 847 248 
Q 594 497 594 1153 
L 594 3053 
L 172 3053 
L 172 3500 
L 594 3500 
L 594 4494 
L 1172 4494 
z
" transform="scale(0.015625)"/>
     <path id="DejaVuSans-2b" d="M 2944 4013 
L 2944 2272 
L 4684 2272 
L 4684 1741 
L 2944 1741 
L 2944 0 
L 2419 0 
L 2419 1741 
L 678 1741 
L 678 2272 
L 2419 2272 
L 2419 4013 
L 2944 4013 
z
" transform="scale(0.015625)"/>
     <path id="DejaVuSans-33" d="M 2597 2516 
Q 3050 2419 3304 2112 
Q 3559 1806 3559 1356 
Q 3559 666 3084 287 
Q 2609 -91 1734 -91 
Q 1441 -91 1130 -33 
Q 819 25 488 141 
L 488 750 
Q 750 597 1062 519 
Q 1375 441 1716 441 
Q 2309 441 2620 675 
Q 2931 909 2931 1356 
Q 2931 1769 2642 2001 
Q 2353 2234 1838 2234 
L 1294 2234 
L 1294 2753 
L 1863 2753 
Q 2328 2753 2575 2939 
Q 2822 3125 2822 3475 
Q 2822 3834 2567 4026 
Q 2313 4219 1838 4219 
Q 1578 4219 1281 4162 
Q 984 4106 628 3988 
L 628 4550 
Q 988 4650 1302 4700 
Q 1616 4750 1894 4750 
Q 2613 4750 3031 4423 
Q 3450 4097 3450 3541 
Q 3450 3153 3228 2886 
Q 3006 2619 2597 2516 
z
" transform="scale(0.015625)"/>
     <path id="DejaVuSans-20" transform="scale(0.015625)"/>
     <path id="DejaVuSans-41" d="M 2188 4044 
L 1331 1722 
L 3047 1722 
L 2188 4044 
z
M 1831 4666 
L 2547 4666 
L 4325 0 
L 3669 0 
L 3244 1197 
L 1141 1197 
L 716 0 
L 50 0 
L 1831 4666 
z
" transform="scale(0.015625)"/>
     <path id="DejaVuSans-63" d="M 3122 3366 
L 3122 2828 
Q 2878 2963 2633 3030 
Q 2388 3097 2138 3097 
Q 1578 3097 1268 2742 
Q 959 2388 959 1747 
Q 959 1106 1268 751 
Q 1578 397 2138 397 
Q 2388 397 2633 464 
Q 2878 531 3122 666 
L 3122 134 
Q 2881 22 2623 -34 
Q 2366 -91 2075 -91 
Q 1284 -91 818 406 
Q 353 903 353 1747 
Q 353 2603 823 3093 
Q 1294 3584 2113 3584 
Q 2378 3584 2631 3529 
Q 2884 3475 3122 3366 
z
" transform="scale(0.015625)"/>
     <path id="DejaVuSans-75" d="M 544 1381 
L 544 3500 
L 1119 3500 
L 1119 1403 
Q 1119 906 1312 657 
Q 1506 409 1894 409 
Q 2359 409 2629 706 
Q 2900 1003 2900 1516 
L 2900 3500 
L 3475 3500 
L 3475 0 
L 2900 0 
L 2900 538 
Q 2691 219 2414 64 
Q 2138 -91 1772 -91 
Q 1169 -91 856 284 
Q 544 659 544 1381 
z
M 1991 3584 
L 1991 3584 
z
" transform="scale(0.015625)"/>
     <path id="DejaVuSans-61" d="M 2194 1759 
Q 1497 1759 1228 1600 
Q 959 1441 959 1056 
Q 959 750 1161 570 
Q 1363 391 1709 391 
Q 2188 391 2477 730 
Q 2766 1069 2766 1631 
L 2766 1759 
L 2194 1759 
z
M 3341 1997 
L 3341 0 
L 2766 0 
L 2766 531 
Q 2569 213 2275 61 
Q 1981 -91 1556 -91 
Q 1019 -91 701 211 
Q 384 513 384 1019 
Q 384 1609 779 1909 
Q 1175 2209 1959 2209 
L 2766 2209 
L 2766 2266 
Q 2766 2663 2505 2880 
Q 2244 3097 1772 3097 
Q 1472 3097 1187 3025 
Q 903 2953 641 2809 
L 641 3341 
Q 956 3463 1253 3523 
Q 1550 3584 1831 3584 
Q 2591 3584 2966 3190 
Q 3341 2797 3341 1997 
z
" transform="scale(0.015625)"/>
     <path id="DejaVuSans-6c" d="M 603 4863 
L 1178 4863 
L 1178 0 
L 603 0 
L 603 4863 
z
" transform="scale(0.015625)"/>
     <path id="DejaVuSans-73" d="M 2834 3397 
L 2834 2853 
Q 2591 2978 2328 3040 
Q 2066 3103 1784 3103 
Q 1356 3103 1142 2972 
Q 928 2841 928 2578 
Q 928 2378 1081 2264 
Q 1234 2150 1697 2047 
L 1894 2003 
Q 2506 1872 2764 1633 
Q 3022 1394 3022 966 
Q 3022 478 2636 193 
Q 2250 -91 1575 -91 
Q 1294 -91 989 -36 
Q 684 19 347 128 
L 347 722 
Q 666 556 975 473 
Q 1284 391 1588 391 
Q 1994 391 2212 530 
Q 2431 669 2431 922 
Q 2431 1156 2273 1281 
Q 2116 1406 1581 1522 
L 1381 1569 
Q 847 1681 609 1914 
Q 372 2147 372 2553 
Q 372 3047 722 3315 
Q 1072 3584 1716 3584 
Q 2034 3584 2315 3537 
Q 2597 3491 2834 3397 
z
" transform="scale(0.015625)"/>
     <path id="DejaVuSans-6e" d="M 3513 2113 
L 3513 0 
L 2938 0 
L 2938 2094 
Q 2938 2591 2744 2837 
Q 2550 3084 2163 3084 
Q 1697 3084 1428 2787 
Q 1159 2491 1159 1978 
L 1159 0 
L 581 0 
L 581 3500 
L 1159 3500 
L 1159 2956 
Q 1366 3272 1645 3428 
Q 1925 3584 2291 3584 
Q 2894 3584 3203 3211 
Q 3513 2838 3513 2113 
z
" transform="scale(0.015625)"/>
     <path id="DejaVuSans-64" d="M 2906 2969 
L 2906 4863 
L 3481 4863 
L 3481 0 
L 2906 0 
L 2906 525 
Q 2725 213 2448 61 
Q 2172 -91 1784 -91 
Q 1150 -91 751 415 
Q 353 922 353 1747 
Q 353 2572 751 3078 
Q 1150 3584 1784 3584 
Q 2172 3584 2448 3432 
Q 2725 3281 2906 2969 
z
M 947 1747 
Q 947 1113 1208 752 
Q 1469 391 1925 391 
Q 2381 391 2643 752 
Q 2906 1113 2906 1747 
Q 2906 2381 2643 2742 
Q 2381 3103 1925 3103 
Q 1469 3103 1208 2742 
Q 947 2381 947 1747 
z
" transform="scale(0.015625)"/>
     <path id="DejaVuSans-46" d="M 628 4666 
L 3309 4666 
L 3309 4134 
L 1259 4134 
L 1259 2759 
L 3109 2759 
L 3109 2228 
L 1259 2228 
L 1259 0 
L 628 0 
L 628 4666 
z
" transform="scale(0.015625)"/>
     <path id="DejaVuSans-6f" d="M 1959 3097 
Q 1497 3097 1228 2736 
Q 959 2375 959 1747 
Q 959 1119 1226 758 
Q 1494 397 1959 397 
Q 2419 397 2687 759 
Q 2956 1122 2956 1747 
Q 2956 2369 2687 2733 
Q 2419 3097 1959 3097 
z
M 1959 3584 
Q 2709 3584 3137 3096 
Q 3566 2609 3566 1747 
Q 3566 888 3137 398 
Q 2709 -91 1959 -91 
Q 1206 -91 779 398 
Q 353 888 353 1747 
Q 353 2609 779 3096 
Q 1206 3584 1959 3584 
z
" transform="scale(0.015625)"/>
     <path id="DejaVuSans-72" d="M 2631 2963 
Q 2534 3019 2420 3045 
Q 2306 3072 2169 3072 
Q 1681 3072 1420 2755 
Q 1159 2438 1159 1844 
L 1159 0 
L 581 0 
L 581 3500 
L 1159 3500 
L 1159 2956 
Q 1341 3275 1631 3429 
Q 1922 3584 2338 3584 
Q 2397 3584 2469 3576 
Q 2541 3569 2628 3553 
L 2631 2963 
z
" transform="scale(0.015625)"/>
     <path id="DejaVuSans-65" d="M 3597 1894 
L 3597 1613 
L 953 1613 
Q 991 1019 1311 708 
Q 1631 397 2203 397 
Q 2534 397 2845 478 
Q 3156 559 3463 722 
L 3463 178 
Q 3153 47 2828 -22 
Q 2503 -91 2169 -91 
Q 1331 -91 842 396 
Q 353 884 353 1716 
Q 353 2575 817 3079 
Q 1281 3584 2069 3584 
Q 2775 3584 3186 3129 
Q 3597 2675 3597 1894 
z
M 3022 2063 
Q 3016 2534 2758 2815 
Q 2500 3097 2075 3097 
Q 1594 3097 1305 2825 
Q 1016 2553 972 2059 
L 3022 2063 
z
" transform="scale(0.015625)"/>
    </defs>
    <use xlink:href="#DejaVuSans-74"/>
    <use xlink:href="#DejaVuSans-2b" x="39.208984"/>
    <use xlink:href="#DejaVuSans-33" x="122.998047"/>
    <use xlink:href="#DejaVuSans-20" x="186.621094"/>
    <use xlink:href="#DejaVuSans-41" x="218.408203"/>
    <use xlink:href="#DejaVuSans-63" x="285.066406"/>
    <use xlink:href="#DejaVuSans-74" x="340.046875"/>
    <use xlink:href="#DejaVuSans-75" x="379.255859"/>
    <use xlink:href="#DejaVuSans-61" x="442.634766"/>
    <use xlink:href="#DejaVuSans-6c" x="503.914062"/>
    <use xlink:href="#DejaVuSans-73" x="531.697266"/>
    <use xlink:href="#DejaVuSans-20" x="583.796875"/>
    <use xlink:href="#DejaVuSans-61" x="615.583984"/>
    <use xlink:href="#DejaVuSans-6e" x="676.863281"/>
    <use xlink:href="#DejaVuSans-64" x="740.242188"/>
    <use xlink:href="#DejaVuSans-20" x="803.71875"/>
    <use xlink:href="#DejaVuSans-74" x="835.505859"/>
    <use xlink:href="#DejaVuSans-2b" x="874.714844"/>
    <use xlink:href="#DejaVuSans-33" x="958.503906"/>
    <use xlink:href="#DejaVuSans-20" x="1022.126953"/>
    <use xlink:href="#DejaVuSans-46" x="1053.914062"/>
    <use xlink:href="#DejaVuSans-6f" x="1107.808594"/>
    <use xlink:href="#DejaVuSans-72" x="1168.990234"/>
    <use xlink:href="#DejaVuSans-65" x="1207.853516"/>
    <use xlink:href="#DejaVuSans-63" x="1269.376953"/>
    <use xlink:href="#DejaVuSans-61" x="1324.357422"/>
    <use xlink:href="#DejaVuSans-73" x="1385.636719"/>
    <use xlink:href="#DejaVuSans-74" x="1437.736328"/>
    <use xlink:href="#DejaVuSans-73" x="1476.945312"/>
   </g>
  </g>
  <g id="legend_1">
   <g id="patch_11">
    <path d="M 576.50625 110.300625 
L 734.64 110.300625 
Q 737.04 110.300625 737.04 107.900625 
L 737.04 56.259375 
Q 737.04 53.859375 734.64 53.859375 
L 576.50625 53.859375 
Q 574.10625 53.859375 574.10625 56.259375 
L 574.10625 107.900625 
Q 574.10625 110.300625 576.50625 110.300625 
z
" style="fill: #ffffff; opacity: 0.8; stroke: #cccccc; stroke-linejoin: miter"/>
   </g>
   <g id="line2d_19">
    <path d="M 578.90625 63.5775 
L 590.90625 63.5775 
L 602.90625 63.5775 
" style="fill: none; stroke: #000000; stroke-width: 1.5; stroke-linecap: square"/>
   </g>
   <g id="text_18">
    <!-- t+3 Actuals -->
    <g transform="translate(612.50625 67.7775) scale(0.12 -0.12)">
     <use xlink:href="#DejaVuSans-74"/>
     <use xlink:href="#DejaVuSans-2b" x="39.208984"/>
     <use xlink:href="#DejaVuSans-33" x="122.998047"/>
     <use xlink:href="#DejaVuSans-20" x="186.621094"/>
     <use xlink:href="#DejaVuSans-41" x="218.408203"/>
     <use xlink:href="#DejaVuSans-63" x="285.066406"/>
     <use xlink:href="#DejaVuSans-74" x="340.046875"/>
     <use xlink:href="#DejaVuSans-75" x="379.255859"/>
     <use xlink:href="#DejaVuSans-61" x="442.634766"/>
     <use xlink:href="#DejaVuSans-6c" x="503.914062"/>
     <use xlink:href="#DejaVuSans-73" x="531.697266"/>
    </g>
   </g>
   <g id="line2d_20">
    <path d="M 578.90625 81.19125 
L 590.90625 81.19125 
L 602.90625 81.19125 
" style="fill: none; stroke-dasharray: 5.55,2.4; stroke-dashoffset: 0; stroke: #ff0000; stroke-width: 1.5"/>
   </g>
   <g id="text_19">
    <!-- t+3 Mean Forecasts -->
    <g transform="translate(612.50625 85.39125) scale(0.12 -0.12)">
     <defs>
      <path id="DejaVuSans-4d" d="M 628 4666 
L 1569 4666 
L 2759 1491 
L 3956 4666 
L 4897 4666 
L 4897 0 
L 4281 0 
L 4281 4097 
L 3078 897 
L 2444 897 
L 1241 4097 
L 1241 0 
L 628 0 
L 628 4666 
z
" transform="scale(0.015625)"/>
     </defs>
     <use xlink:href="#DejaVuSans-74"/>
     <use xlink:href="#DejaVuSans-2b" x="39.208984"/>
     <use xlink:href="#DejaVuSans-33" x="122.998047"/>
     <use xlink:href="#DejaVuSans-20" x="186.621094"/>
     <use xlink:href="#DejaVuSans-4d" x="218.408203"/>
     <use xlink:href="#DejaVuSans-65" x="304.6875"/>
     <use xlink:href="#DejaVuSans-61" x="366.210938"/>
     <use xlink:href="#DejaVuSans-6e" x="427.490234"/>
     <use xlink:href="#DejaVuSans-20" x="490.869141"/>
     <use xlink:href="#DejaVuSans-46" x="522.65625"/>
     <use xlink:href="#DejaVuSans-6f" x="576.550781"/>
     <use xlink:href="#DejaVuSans-72" x="637.732422"/>
     <use xlink:href="#DejaVuSans-65" x="676.595703"/>
     <use xlink:href="#DejaVuSans-63" x="738.119141"/>
     <use xlink:href="#DejaVuSans-61" x="793.099609"/>
     <use xlink:href="#DejaVuSans-73" x="854.378906"/>
     <use xlink:href="#DejaVuSans-74" x="906.478516"/>
     <use xlink:href="#DejaVuSans-73" x="945.6875"/>
    </g>
   </g>
   <g id="patch_12">
    <path d="M 578.90625 103.005 
L 602.90625 103.005 
L 602.90625 94.605 
L 578.90625 94.605 
z
" style="fill: #808080; fill-opacity: 0.2; stroke: #808080; stroke-opacity: 0.2; stroke-linejoin: miter"/>
   </g>
   <g id="text_20">
    <!-- Recession -->
    <g transform="translate(612.50625 103.005) scale(0.12 -0.12)">
     <defs>
      <path id="DejaVuSans-52" d="M 2841 2188 
Q 3044 2119 3236 1894 
Q 3428 1669 3622 1275 
L 4263 0 
L 3584 0 
L 2988 1197 
Q 2756 1666 2539 1819 
Q 2322 1972 1947 1972 
L 1259 1972 
L 1259 0 
L 628 0 
L 628 4666 
L 2053 4666 
Q 2853 4666 3247 4331 
Q 3641 3997 3641 3322 
Q 3641 2881 3436 2590 
Q 3231 2300 2841 2188 
z
M 1259 4147 
L 1259 2491 
L 2053 2491 
Q 2509 2491 2742 2702 
Q 2975 2913 2975 3322 
Q 2975 3731 2742 3939 
Q 2509 4147 2053 4147 
L 1259 4147 
z
" transform="scale(0.015625)"/>
      <path id="DejaVuSans-69" d="M 603 3500 
L 1178 3500 
L 1178 0 
L 603 0 
L 603 3500 
z
M 603 4863 
L 1178 4863 
L 1178 4134 
L 603 4134 
L 603 4863 
z
" transform="scale(0.015625)"/>
     </defs>
     <use xlink:href="#DejaVuSans-52"/>
     <use xlink:href="#DejaVuSans-65" x="64.982422"/>
     <use xlink:href="#DejaVuSans-63" x="126.505859"/>
     <use xlink:href="#DejaVuSans-65" x="181.486328"/>
     <use xlink:href="#DejaVuSans-73" x="243.009766"/>
     <use xlink:href="#DejaVuSans-73" x="295.109375"/>
     <use xlink:href="#DejaVuSans-69" x="347.208984"/>
     <use xlink:href="#DejaVuSans-6f" x="374.992188"/>
     <use xlink:href="#DejaVuSans-6e" x="436.173828"/>
    </g>
   </g>
  </g>
 </g>
 <defs>
  <clipPath id="pbbce3488c7">
   <rect x="48.55" y="35.6" width="804.65" height="368.6"/>
  </clipPath>
 </defs>
</svg>
